<svg xmlns="http://www.w3.org/2000/svg" xmlns:xlink="http://www.w3.org/1999/xlink" width="840" height="61.709999999999994"><rect width="840" height="61.709999999999994" rx="0" ry="0" class="a"></rect><svg height="21.709999999999997" viewBox="0 0 80 2.171" width="800" x="20" xmlns="http://www.w3.org/2000/svg" xmlns:xlink="http://www.w3.org/1999/xlink" y="20"><style>.a{fill:rgb(241,243,245)}.b{font-family:'Fira Code',Monaco,Consolas,Menlo,'Bitstream Vera Sans Mono','Powerline Symbols',monospace}.c{fill:transparent}.e{animation-duration:9.26692500000354s;animation-iteration-count:infinite;animation-name:d;animation-timing-function:steps(1,end)}.f{fill:rgb(23,36,49);white-space:pre}.g{fill:rgb(133,153,0);white-space:pre}@keyframes d{0%{transform:translateX(-0px)}0.8%{transform:translateX(-80px)}1%{transform:translateX(-160px)}3.8%{transform:translateX(-240px)}5.4%{transform:translateX(-320px)}8.1%{transform:translateX(-400px)}9.6%{transform:translateX(-480px)}12.4%{transform:translateX(-560px)}13.8%{transform:translateX(-640px)}16.6%{transform:translateX(-720px)}18.3%{transform:translateX(-800px)}21%{transform:translateX(-880px)}22.2%{transform:translateX(-960px)}25%{transform:translateX(-1040px)}27.7%{transform:translateX(-1120px)}29.3%{transform:translateX(-1200px)}32.1%{transform:translateX(-1280px)}33.5%{transform:translateX(-1360px)}34.8%{transform:translateX(-1440px)}34.8%{transform:translateX(-1520px)}34.8%{transform:translateX(-1600px)}100%{transform:translateX(-1680px)}}</style><g font-family="&#x27;Fira Code&#x27;,Monaco,Consolas,Menlo,&#x27;Bitstream Vera Sans Mono&#x27;,&#x27;Powerline Symbols&#x27;,monospace" font-size="1.67" class="b"><defs><symbol id="a"><rect height="1" width="80" x="0" y="0" class="c"></rect></symbol></defs><rect height="2.171" width="80" class="a"></rect><g class="e"><svg x="0" y="0" width="1760"><svg x="0"><use xlink:href="#a"></use></svg><svg x="80"><use xlink:href="#a"></use></svg><svg x="160"><use xlink:href="#a"></use><text font-size="1.67" x="0" y="1.67" class="f">⠙</text><text font-size="1.67" x="2.004" y="1.67" class="g">■■</text><text font-size="1.67" x="37.074" y="1.67" class="f">4%</text><text font-size="1.67" x="40.08" y="1.67" class="f">P:</text><text font-size="1.67" x="43.086" y="1.67" class="f">Adding</text><text font-size="1.67" x="50.1" y="1.67" class="f">1</text></svg><svg x="240"><use xlink:href="#a"></use><text font-size="1.67" x="0" y="1.67" class="f">⠹</text><text font-size="1.67" x="2.004" y="1.67" class="g">■■■■■</text><text font-size="1.67" x="36.071999999999996" y="1.67" class="f">12%</text><text font-size="1.67" x="40.08" y="1.67" class="f">P:</text><text font-size="1.67" x="43.086" y="1.67" class="f">Adding</text><text font-size="1.67" x="50.1" y="1.67" class="f">3</text></svg><svg x="320"><use xlink:href="#a"></use><text font-size="1.67" x="0" y="1.67" class="f">⠸</text><text font-size="1.67" x="2.004" y="1.67" class="g">■■■■■■</text><text font-size="1.67" x="36.071999999999996" y="1.67" class="f">16%</text><text font-size="1.67" x="40.08" y="1.67" class="f">P:</text><text font-size="1.67" x="43.086" y="1.67" class="f">Adding</text><text font-size="1.67" x="50.1" y="1.67" class="f">4</text></svg><svg x="400"><use xlink:href="#a"></use><text font-size="1.67" x="0" y="1.67" class="f">⠼</text><text font-size="1.67" x="2.004" y="1.67" class="g">■■■■■■■■</text><text font-size="1.67" x="36.071999999999996" y="1.67" class="f">24%</text><text font-size="1.67" x="40.08" y="1.67" class="f">P:</text><text font-size="1.67" x="43.086" y="1.67" class="f">Adding</text><text font-size="1.67" x="50.1" y="1.67" class="f">6</text></svg><svg x="480"><use xlink:href="#a"></use><text font-size="1.67" x="0" y="1.67" class="f">⠴</text><text font-size="1.67" x="2.004" y="1.67" class="g">■■■■■■■■■</text><text font-size="1.67" x="36.071999999999996" y="1.67" class="f">28%</text><text font-size="1.67" x="40.08" y="1.67" class="f">P:</text><text font-size="1.67" x="43.086" y="1.67" class="f">Adding</text><text font-size="1.67" x="50.1" y="1.67" class="f">7</text></svg><svg x="560"><use xlink:href="#a"></use><text font-size="1.67" x="0" y="1.67" class="f">⠦</text><text font-size="1.67" x="2.004" y="1.67" class="g">■■■■■■■■■■■■</text><text font-size="1.67" x="36.071999999999996" y="1.67" class="f">36%</text><text font-size="1.67" x="40.08" y="1.67" class="f">P:</text><text font-size="1.67" x="43.086" y="1.67" class="f">Adding</text><text font-size="1.67" x="50.1" y="1.67" class="f">9</text></svg><svg x="640"><use xlink:href="#a"></use><text font-size="1.67" x="0" y="1.67" class="f">⠧</text><text font-size="1.67" x="2.004" y="1.67" class="g">■■■■■■■■■■■■■</text><text font-size="1.67" x="36.071999999999996" y="1.67" class="f">40%</text><text font-size="1.67" x="40.08" y="1.67" class="f">P:</text><text font-size="1.67" x="43.086" y="1.67" class="f">Adding</text><text font-size="1.67" x="50.1" y="1.67" class="f">10</text></svg><svg x="720"><use xlink:href="#a"></use><text font-size="1.67" x="0" y="1.67" class="f">⠇</text><text font-size="1.67" x="2.004" y="1.67" class="g">■■■■■■■■■■■■■■■</text><text font-size="1.67" x="36.071999999999996" y="1.67" class="f">48%</text><text font-size="1.67" x="40.08" y="1.67" class="f">P:</text><text font-size="1.67" x="43.086" y="1.67" class="f">Adding</text><text font-size="1.67" x="50.1" y="1.67" class="f">12</text></svg><svg x="800"><use xlink:href="#a"></use><text font-size="1.67" x="0" y="1.67" class="f">⠏</text><text font-size="1.67" x="2.004" y="1.67" class="g">■■■■■■■■■■■■■■■■■</text><text font-size="1.67" x="36.071999999999996" y="1.67" class="f">52%</text><text font-size="1.67" x="40.08" y="1.67" class="f">P:</text><text font-size="1.67" x="43.086" y="1.67" class="f">Adding</text><text font-size="1.67" x="50.1" y="1.67" class="f">13</text></svg><svg x="880"><use xlink:href="#a"></use><text font-size="1.67" x="0" y="1.67" class="f">⠋</text><text font-size="1.67" x="2.004" y="1.67" class="g">■■■■■■■■■■■■■■■■■■■</text><text font-size="1.67" x="36.071999999999996" y="1.67" class="f">60%</text><text font-size="1.67" x="40.08" y="1.67" class="f">P:</text><text font-size="1.67" x="43.086" y="1.67" class="f">Adding</text><text font-size="1.67" x="50.1" y="1.67" class="f">15</text></svg><svg x="960"><use xlink:href="#a"></use><text font-size="1.67" x="0" y="1.67" class="f">⠙</text><text font-size="1.67" x="2.004" y="1.67" class="g">■■■■■■■■■■■■■■■■■■■■</text><text font-size="1.67" x="36.071999999999996" y="1.67" class="f">64%</text><text font-size="1.67" x="40.08" y="1.67" class="f">P:</text><text font-size="1.67" x="43.086" y="1.67" class="f">Adding</text><text font-size="1.67" x="50.1" y="1.67" class="f">16</text></svg><svg x="1040"><use xlink:href="#a"></use><text font-size="1.67" x="0" y="1.67" class="f">⠹</text><text font-size="1.67" x="2.004" y="1.67" class="g">■■■■■■■■■■■■■■■■■■■■■■■</text><text font-size="1.67" x="36.071999999999996" y="1.67" class="f">72%</text><text font-size="1.67" x="40.08" y="1.67" class="f">P:</text><text font-size="1.67" x="43.086" y="1.67" class="f">Adding</text><text font-size="1.67" x="50.1" y="1.67" class="f">18</text></svg><svg x="1120"><use xlink:href="#a"></use><text font-size="1.67" x="0" y="1.67" class="f">⠸</text><text font-size="1.67" x="2.004" y="1.67" class="g">■■■■■■■■■■■■■■■■■■■■■■■■■</text><text font-size="1.67" x="36.071999999999996" y="1.67" class="f">80%</text><text font-size="1.67" x="40.08" y="1.67" class="f">P:</text><text font-size="1.67" x="43.086" y="1.67" class="f">Adding</text><text font-size="1.67" x="50.1" y="1.67" class="f">20</text></svg><svg x="1200"><use xlink:href="#a"></use><text font-size="1.67" x="0" y="1.67" class="f">⠼</text><text font-size="1.67" x="2.004" y="1.67" class="g">■■■■■■■■■■■■■■■■■■■■■■■■■■</text><text font-size="1.67" x="36.071999999999996" y="1.67" class="f">84%</text><text font-size="1.67" x="40.08" y="1.67" class="f">P:</text><text font-size="1.67" x="43.086" y="1.67" class="f">Adding</text><text font-size="1.67" x="50.1" y="1.67" class="f">21</text></svg><svg x="1280"><use xlink:href="#a"></use><text font-size="1.67" x="0" y="1.67" class="f">⠴</text><text font-size="1.67" x="2.004" y="1.67" class="g">■■■■■■■■■■■■■■■■■■■■■■■■■■■■■</text><text font-size="1.67" x="36.071999999999996" y="1.67" class="f">92%</text><text font-size="1.67" x="40.08" y="1.67" class="f">P:</text><text font-size="1.67" x="43.086" y="1.67" class="f">Adding</text><text font-size="1.67" x="50.1" y="1.67" class="f">23</text></svg><svg x="1360"><use xlink:href="#a"></use><text font-size="1.67" x="0" y="1.67" class="f">⠦</text><text font-size="1.67" x="2.004" y="1.67" class="g">■■■■■■■■■■■■■■■■■■■■■■■■■■■■■■</text><text font-size="1.67" x="36.071999999999996" y="1.67" class="f">96%</text><text font-size="1.67" x="40.08" y="1.67" class="f">P:</text><text font-size="1.67" x="43.086" y="1.67" class="f">Adding</text><text font-size="1.67" x="50.1" y="1.67" class="f">24</text></svg><svg x="1440"><use xlink:href="#a"></use></svg><svg x="1520"><use xlink:href="#a"></use></svg><svg x="1600"><use xlink:href="#a"></use></svg><svg x="1680"><use xlink:href="#a"></use></svg></svg></g></g></svg></svg>