<svg xmlns="http://www.w3.org/2000/svg" xmlns:xlink="http://www.w3.org/1999/xlink" width="840" height="61.709999999999994"><rect width="840" height="61.709999999999994" rx="0" ry="0" class="a"></rect><svg height="21.709999999999997" viewBox="0 0 80 2.171" width="800" x="20" xmlns="http://www.w3.org/2000/svg" xmlns:xlink="http://www.w3.org/1999/xlink" y="20"><style>.a{fill:rgb(241,243,245)}.b{font-family:'Fira Code',Monaco,Consolas,Menlo,'Bitstream Vera Sans Mono','Powerline Symbols',monospace}.c{fill:rgb(23,36,49);white-space:pre}.d{fill:rgb(133,153,0);white-space:pre}.e{fill:transparent}.g{animation-duration:10.2720449999906s;animation-iteration-count:infinite;animation-name:f;animation-timing-function:steps(1,end)}@keyframes f{0%{transform:translateX(-0px)}1%{transform:translateX(-80px)}1.1%{transform:translateX(-160px)}2.8%{transform:translateX(-240px)}4.4%{transform:translateX(-320px)}6.1%{transform:translateX(-400px)}7.7%{transform:translateX(-480px)}9.4%{transform:translateX(-560px)}11%{transform:translateX(-640px)}12.7%{transform:translateX(-720px)}14.4%{transform:translateX(-800px)}16%{transform:translateX(-880px)}17.7%{transform:translateX(-960px)}19.3%{transform:translateX(-1040px)}21%{transform:translateX(-1120px)}22.7%{transform:translateX(-1200px)}24.3%{transform:translateX(-1280px)}26%{transform:translateX(-1360px)}27.6%{transform:translateX(-1440px)}29.3%{transform:translateX(-1520px)}30.9%{transform:translateX(-1600px)}32.5%{transform:translateX(-1680px)}34.1%{transform:translateX(-1760px)}36%{transform:translateX(-1840px)}37.6%{transform:translateX(-1920px)}39.3%{transform:translateX(-2000px)}40.9%{transform:translateX(-2080px)}41%{transform:translateX(-2160px)}41%{transform:translateX(-2240px)}41%{transform:translateX(-2320px)}100%{transform:translateX(-2400px)}}</style><g font-family="&#x27;Fira Code&#x27;,Monaco,Consolas,Menlo,&#x27;Bitstream Vera Sans Mono&#x27;,&#x27;Powerline Symbols&#x27;,monospace" font-size="1.67" class="b"><defs><symbol id="1"><text font-size="1.67" x="0" y="1.67" class="c">⠦</text><text font-size="1.67" x="2.004" y="1.67" class="d">■■■■■■■■■■■■■■■■■■■■■■■■■■■■■■■</text><text font-size="1.67" x="35.06999999999999" y="1.67" class="c">25/25</text><text font-size="1.67" x="41.082" y="1.67" class="c">P:</text><text font-size="1.67" x="44.087999999999994" y="1.67" class="c">Adding</text><text font-size="1.67" x="51.102" y="1.67" class="c">25</text></symbol><symbol id="a"><rect height="1" width="80" x="0" y="0" class="e"></rect></symbol></defs><rect height="2.171" width="80" class="a"></rect><g class="g"><svg x="0" y="0" width="2480"><svg x="0"><use xlink:href="#a"></use></svg><svg x="80"><use xlink:href="#a"></use></svg><svg x="160"><use xlink:href="#a"></use><text font-size="1.67" x="0" y="1.67" class="c">⠙</text><text font-size="1.67" x="2.004" y="1.67" class="d">■■</text><text font-size="1.67" x="35.06999999999999" y="1.67" class="c">1/25</text><text font-size="1.67" x="40.08" y="1.67" class="c">P:</text><text font-size="1.67" x="43.086" y="1.67" class="c">Adding</text><text font-size="1.67" x="50.1" y="1.67" class="c">1</text></svg><svg x="240"><use xlink:href="#a"></use><text font-size="1.67" x="0" y="1.67" class="c">⠹</text><text font-size="1.67" x="2.004" y="1.67" class="d">■■■</text><text font-size="1.67" x="35.06999999999999" y="1.67" class="c">2/25</text><text font-size="1.67" x="40.08" y="1.67" class="c">P:</text><text font-size="1.67" x="43.086" y="1.67" class="c">Adding</text><text font-size="1.67" x="50.1" y="1.67" class="c">2</text></svg><svg x="320"><use xlink:href="#a"></use><text font-size="1.67" x="0" y="1.67" class="c">⠸</text><text font-size="1.67" x="2.004" y="1.67" class="d">■■■■■</text><text font-size="1.67" x="35.06999999999999" y="1.67" class="c">3/25</text><text font-size="1.67" x="40.08" y="1.67" class="c">P:</text><text font-size="1.67" x="43.086" y="1.67" class="c">Adding</text><text font-size="1.67" x="50.1" y="1.67" class="c">3</text></svg><svg x="400"><use xlink:href="#a"></use><text font-size="1.67" x="0" y="1.67" class="c">⠼</text><text font-size="1.67" x="2.004" y="1.67" class="d">■■■■■■</text><text font-size="1.67" x="35.06999999999999" y="1.67" class="c">4/25</text><text font-size="1.67" x="40.08" y="1.67" class="c">P:</text><text font-size="1.67" x="43.086" y="1.67" class="c">Adding</text><text font-size="1.67" x="50.1" y="1.67" class="c">4</text></svg><svg x="480"><use xlink:href="#a"></use><text font-size="1.67" x="0" y="1.67" class="c">⠴</text><text font-size="1.67" x="2.004" y="1.67" class="d">■■■■■■■</text><text font-size="1.67" x="35.06999999999999" y="1.67" class="c">5/25</text><text font-size="1.67" x="40.08" y="1.67" class="c">P:</text><text font-size="1.67" x="43.086" y="1.67" class="c">Adding</text><text font-size="1.67" x="50.1" y="1.67" class="c">5</text></svg><svg x="560"><use xlink:href="#a"></use><text font-size="1.67" x="0" y="1.67" class="c">⠦</text><text font-size="1.67" x="2.004" y="1.67" class="d">■■■■■■■■</text><text font-size="1.67" x="35.06999999999999" y="1.67" class="c">6/25</text><text font-size="1.67" x="40.08" y="1.67" class="c">P:</text><text font-size="1.67" x="43.086" y="1.67" class="c">Adding</text><text font-size="1.67" x="50.1" y="1.67" class="c">6</text></svg><svg x="640"><use xlink:href="#a"></use><text font-size="1.67" x="0" y="1.67" class="c">⠧</text><text font-size="1.67" x="2.004" y="1.67" class="d">■■■■■■■■■</text><text font-size="1.67" x="35.06999999999999" y="1.67" class="c">7/25</text><text font-size="1.67" x="40.08" y="1.67" class="c">P:</text><text font-size="1.67" x="43.086" y="1.67" class="c">Adding</text><text font-size="1.67" x="50.1" y="1.67" class="c">7</text></svg><svg x="720"><use xlink:href="#a"></use><text font-size="1.67" x="0" y="1.67" class="c">⠇</text><text font-size="1.67" x="2.004" y="1.67" class="d">■■■■■■■■■■■</text><text font-size="1.67" x="35.06999999999999" y="1.67" class="c">8/25</text><text font-size="1.67" x="40.08" y="1.67" class="c">P:</text><text font-size="1.67" x="43.086" y="1.67" class="c">Adding</text><text font-size="1.67" x="50.1" y="1.67" class="c">8</text></svg><svg x="800"><use xlink:href="#a"></use><text font-size="1.67" x="0" y="1.67" class="c">⠏</text><text font-size="1.67" x="2.004" y="1.67" class="d">■■■■■■■■■■■■</text><text font-size="1.67" x="35.06999999999999" y="1.67" class="c">9/25</text><text font-size="1.67" x="40.08" y="1.67" class="c">P:</text><text font-size="1.67" x="43.086" y="1.67" class="c">Adding</text><text font-size="1.67" x="50.1" y="1.67" class="c">9</text></svg><svg x="880"><use xlink:href="#a"></use><text font-size="1.67" x="0" y="1.67" class="c">⠋</text><text font-size="1.67" x="2.004" y="1.67" class="d">■■■■■■■■■■■■■</text><text font-size="1.67" x="35.06999999999999" y="1.67" class="c">10/25</text><text font-size="1.67" x="41.082" y="1.67" class="c">P:</text><text font-size="1.67" x="44.087999999999994" y="1.67" class="c">Adding</text><text font-size="1.67" x="51.102" y="1.67" class="c">10</text></svg><svg x="960"><use xlink:href="#a"></use><text font-size="1.67" x="0" y="1.67" class="c">⠙</text><text font-size="1.67" x="2.004" y="1.67" class="d">■■■■■■■■■■■■■■</text><text font-size="1.67" x="35.06999999999999" y="1.67" class="c">11/25</text><text font-size="1.67" x="41.082" y="1.67" class="c">P:</text><text font-size="1.67" x="44.087999999999994" y="1.67" class="c">Adding</text><text font-size="1.67" x="51.102" y="1.67" class="c">11</text></svg><svg x="1040"><use xlink:href="#a"></use><text font-size="1.67" x="0" y="1.67" class="c">⠹</text><text font-size="1.67" x="2.004" y="1.67" class="d">■■■■■■■■■■■■■■■</text><text font-size="1.67" x="35.06999999999999" y="1.67" class="c">12/25</text><text font-size="1.67" x="41.082" y="1.67" class="c">P:</text><text font-size="1.67" x="44.087999999999994" y="1.67" class="c">Adding</text><text font-size="1.67" x="51.102" y="1.67" class="c">12</text></svg><svg x="1120"><use xlink:href="#a"></use><text font-size="1.67" x="0" y="1.67" class="c">⠸</text><text font-size="1.67" x="2.004" y="1.67" class="d">■■■■■■■■■■■■■■■■■</text><text font-size="1.67" x="35.06999999999999" y="1.67" class="c">13/25</text><text font-size="1.67" x="41.082" y="1.67" class="c">P:</text><text font-size="1.67" x="44.087999999999994" y="1.67" class="c">Adding</text><text font-size="1.67" x="51.102" y="1.67" class="c">13</text></svg><svg x="1200"><use xlink:href="#a"></use><text font-size="1.67" x="0" y="1.67" class="c">⠼</text><text font-size="1.67" x="2.004" y="1.67" class="d">■■■■■■■■■■■■■■■■■■</text><text font-size="1.67" x="35.06999999999999" y="1.67" class="c">14/25</text><text font-size="1.67" x="41.082" y="1.67" class="c">P:</text><text font-size="1.67" x="44.087999999999994" y="1.67" class="c">Adding</text><text font-size="1.67" x="51.102" y="1.67" class="c">14</text></svg><svg x="1280"><use xlink:href="#a"></use><text font-size="1.67" x="0" y="1.67" class="c">⠴</text><text font-size="1.67" x="2.004" y="1.67" class="d">■■■■■■■■■■■■■■■■■■■</text><text font-size="1.67" x="35.06999999999999" y="1.67" class="c">15/25</text><text font-size="1.67" x="41.082" y="1.67" class="c">P:</text><text font-size="1.67" x="44.087999999999994" y="1.67" class="c">Adding</text><text font-size="1.67" x="51.102" y="1.67" class="c">15</text></svg><svg x="1360"><use xlink:href="#a"></use><text font-size="1.67" x="0" y="1.67" class="c">⠦</text><text font-size="1.67" x="2.004" y="1.67" class="d">■■■■■■■■■■■■■■■■■■■■</text><text font-size="1.67" x="35.06999999999999" y="1.67" class="c">16/25</text><text font-size="1.67" x="41.082" y="1.67" class="c">P:</text><text font-size="1.67" x="44.087999999999994" y="1.67" class="c">Adding</text><text font-size="1.67" x="51.102" y="1.67" class="c">16</text></svg><svg x="1440"><use xlink:href="#a"></use><text font-size="1.67" x="0" y="1.67" class="c">⠧</text><text font-size="1.67" x="2.004" y="1.67" class="d">■■■■■■■■■■■■■■■■■■■■■</text><text font-size="1.67" x="35.06999999999999" y="1.67" class="c">17/25</text><text font-size="1.67" x="41.082" y="1.67" class="c">P:</text><text font-size="1.67" x="44.087999999999994" y="1.67" class="c">Adding</text><text font-size="1.67" x="51.102" y="1.67" class="c">17</text></svg><svg x="1520"><use xlink:href="#a"></use><text font-size="1.67" x="0" y="1.67" class="c">⠇</text><text font-size="1.67" x="2.004" y="1.67" class="d">■■■■■■■■■■■■■■■■■■■■■■■</text><text font-size="1.67" x="35.06999999999999" y="1.67" class="c">18/25</text><text font-size="1.67" x="41.082" y="1.67" class="c">P:</text><text font-size="1.67" x="44.087999999999994" y="1.67" class="c">Adding</text><text font-size="1.67" x="51.102" y="1.67" class="c">18</text></svg><svg x="1600"><use xlink:href="#a"></use><text font-size="1.67" x="0" y="1.67" class="c">⠏</text><text font-size="1.67" x="2.004" y="1.67" class="d">■■■■■■■■■■■■■■■■■■■■■■■■</text><text font-size="1.67" x="35.06999999999999" y="1.67" class="c">19/25</text><text font-size="1.67" x="41.082" y="1.67" class="c">P:</text><text font-size="1.67" x="44.087999999999994" y="1.67" class="c">Adding</text><text font-size="1.67" x="51.102" y="1.67" class="c">19</text></svg><svg x="1680"><use xlink:href="#a"></use><text font-size="1.67" x="0" y="1.67" class="c">⠋</text><text font-size="1.67" x="2.004" y="1.67" class="d">■■■■■■■■■■■■■■■■■■■■■■■■■</text><text font-size="1.67" x="35.06999999999999" y="1.67" class="c">20/25</text><text font-size="1.67" x="41.082" y="1.67" class="c">P:</text><text font-size="1.67" x="44.087999999999994" y="1.67" class="c">Adding</text><text font-size="1.67" x="51.102" y="1.67" class="c">20</text></svg><svg x="1760"><use xlink:href="#a"></use><text font-size="1.67" x="0" y="1.67" class="c">⠙</text><text font-size="1.67" x="2.004" y="1.67" class="d">■■■■■■■■■■■■■■■■■■■■■■■■■■</text><text font-size="1.67" x="35.06999999999999" y="1.67" class="c">21/25</text><text font-size="1.67" x="41.082" y="1.67" class="c">P:</text><text font-size="1.67" x="44.087999999999994" y="1.67" class="c">Adding</text><text font-size="1.67" x="51.102" y="1.67" class="c">21</text></svg><svg x="1840"><use xlink:href="#a"></use><text font-size="1.67" x="0" y="1.67" class="c">⠹</text><text font-size="1.67" x="2.004" y="1.67" class="d">■■■■■■■■■■■■■■■■■■■■■■■■■■■</text><text font-size="1.67" x="35.06999999999999" y="1.67" class="c">22/25</text><text font-size="1.67" x="41.082" y="1.67" class="c">P:</text><text font-size="1.67" x="44.087999999999994" y="1.67" class="c">Adding</text><text font-size="1.67" x="51.102" y="1.67" class="c">22</text></svg><svg x="1920"><use xlink:href="#a"></use><text font-size="1.67" x="0" y="1.67" class="c">⠸</text><text font-size="1.67" x="2.004" y="1.67" class="d">■■■■■■■■■■■■■■■■■■■■■■■■■■■■■</text><text font-size="1.67" x="35.06999999999999" y="1.67" class="c">23/25</text><text font-size="1.67" x="41.082" y="1.67" class="c">P:</text><text font-size="1.67" x="44.087999999999994" y="1.67" class="c">Adding</text><text font-size="1.67" x="51.102" y="1.67" class="c">23</text></svg><svg x="2000"><use xlink:href="#a"></use><text font-size="1.67" x="0" y="1.67" class="c">⠼</text><text font-size="1.67" x="2.004" y="1.67" class="d">■■■■■■■■■■■■■■■■■■■■■■■■■■■■■■</text><text font-size="1.67" x="35.06999999999999" y="1.67" class="c">24/25</text><text font-size="1.67" x="41.082" y="1.67" class="c">P:</text><text font-size="1.67" x="44.087999999999994" y="1.67" class="c">Adding</text><text font-size="1.67" x="51.102" y="1.67" class="c">24</text></svg><svg x="2080"><use xlink:href="#a"></use><text font-size="1.67" x="0" y="1.67" class="c">⠴</text><text font-size="1.67" x="2.004" y="1.67" class="d">■■■■■■■■■■■■■■■■■■■■■■■■■■■■■■■</text><text font-size="1.67" x="35.06999999999999" y="1.67" class="c">25/25</text><text font-size="1.67" x="41.082" y="1.67" class="c">P:</text><text font-size="1.67" x="44.087999999999994" y="1.67" class="c">Adding</text><text font-size="1.67" x="51.102" y="1.67" class="c">25</text></svg><svg x="2160"><use xlink:href="#a"></use><use xlink:href="#1" y="0"></use></svg><svg x="2240"><use xlink:href="#a"></use><use xlink:href="#1" y="0"></use></svg><svg x="2320"><use xlink:href="#a"></use><use xlink:href="#1" y="0"></use></svg><svg x="2400"><use xlink:href="#a"></use><use xlink:href="#1" y="0"></use></svg></svg></g></g></svg></svg>