<svg xmlns="http://www.w3.org/2000/svg" xmlns:xlink="http://www.w3.org/1999/xlink" width="840" height="61.709999999999994"><rect width="840" height="61.709999999999994" rx="0" ry="0" class="a"></rect><svg height="21.709999999999997" viewBox="0 0 80 2.171" width="800" x="20" xmlns="http://www.w3.org/2000/svg" xmlns:xlink="http://www.w3.org/1999/xlink" y="20"><style>.a{fill:rgb(241,243,245)}.b{font-family:'Fira Code',Monaco,Consolas,Menlo,'Bitstream Vera Sans Mono','Powerline Symbols',monospace}.c{fill:transparent}.e{animation-duration:9.55983199999901s;animation-iteration-count:infinite;animation-name:d;animation-timing-function:steps(1,end)}.f{fill:rgb(133,153,0);white-space:pre}.g{fill:rgb(23,36,49);white-space:pre}@keyframes d{0%{transform:translateX(-0px)}3.4%{transform:translateX(-80px)}3.7%{transform:translateX(-160px)}5.6%{transform:translateX(-240px)}7%{transform:translateX(-320px)}9.6%{transform:translateX(-400px)}12.1%{transform:translateX(-480px)}13.6%{transform:translateX(-560px)}16.2%{transform:translateX(-640px)}17.6%{transform:translateX(-720px)}20.2%{transform:translateX(-800px)}21.7%{transform:translateX(-880px)}24.2%{transform:translateX(-960px)}26.9%{transform:translateX(-1040px)}28.3%{transform:translateX(-1120px)}30.9%{transform:translateX(-1200px)}32.3%{transform:translateX(-1280px)}34.9%{transform:translateX(-1360px)}36.3%{transform:translateX(-1440px)}36.4%{transform:translateX(-1520px)}36.4%{transform:translateX(-1600px)}36.4%{transform:translateX(-1680px)}100%{transform:translateX(-1760px)}}</style><g font-family="&#x27;Fira Code&#x27;,Monaco,Consolas,Menlo,&#x27;Bitstream Vera Sans Mono&#x27;,&#x27;Powerline Symbols&#x27;,monospace" font-size="1.67" class="b"><defs><symbol id="a"><rect height="1" width="80" x="0" y="0" class="c"></rect></symbol></defs><rect height="2.171" width="80" class="a"></rect><g class="e"><svg x="0" y="0" width="1840"><svg x="0"><use xlink:href="#a"></use></svg><svg x="80"><use xlink:href="#a"></use></svg><svg x="160"><use xlink:href="#a"></use><text font-size="1.67" x="0" y="1.67" class="f">■■</text><text font-size="1.67" x="35.06999999999999" y="1.67" class="g">4%</text><text font-size="1.67" x="38.07599999999999" y="1.67" class="g">|</text><text font-size="1.67" x="40.08" y="1.67" class="g">P:</text><text font-size="1.67" x="43.086" y="1.67" class="g">Adding</text><text font-size="1.67" x="50.1" y="1.67" class="g">1</text><text font-size="1.67" x="52.104" y="1.67" class="g">ETA:</text><text font-size="1.67" x="58.116" y="1.67" class="g">4s</text></svg><svg x="240"><use xlink:href="#a"></use><text font-size="1.67" x="0" y="1.67" class="f">■■■</text><text font-size="1.67" x="35.06999999999999" y="1.67" class="g">8%</text><text font-size="1.67" x="38.07599999999999" y="1.67" class="g">|</text><text font-size="1.67" x="40.08" y="1.67" class="g">P:</text><text font-size="1.67" x="43.086" y="1.67" class="g">Adding</text><text font-size="1.67" x="50.1" y="1.67" class="g">2</text><text font-size="1.67" x="52.104" y="1.67" class="g">ETA:</text><text font-size="1.67" x="58.116" y="1.67" class="g">4s</text></svg><svg x="320"><use xlink:href="#a"></use><text font-size="1.67" x="0" y="1.67" class="f">■■■■■</text><text font-size="1.67" x="34.068" y="1.67" class="g">12%</text><text font-size="1.67" x="38.07599999999999" y="1.67" class="g">|</text><text font-size="1.67" x="40.08" y="1.67" class="g">P:</text><text font-size="1.67" x="43.086" y="1.67" class="g">Adding</text><text font-size="1.67" x="50.1" y="1.67" class="g">3</text><text font-size="1.67" x="52.104" y="1.67" class="g">ETA:</text><text font-size="1.67" x="58.116" y="1.67" class="g">4s</text></svg><svg x="400"><use xlink:href="#a"></use><text font-size="1.67" x="0" y="1.67" class="f">■■■■■■■</text><text font-size="1.67" x="34.068" y="1.67" class="g">20%</text><text font-size="1.67" x="38.07599999999999" y="1.67" class="g">|</text><text font-size="1.67" x="40.08" y="1.67" class="g">P:</text><text font-size="1.67" x="43.086" y="1.67" class="g">Adding</text><text font-size="1.67" x="50.1" y="1.67" class="g">5</text><text font-size="1.67" x="52.104" y="1.67" class="g">ETA:</text><text font-size="1.67" x="58.116" y="1.67" class="g">3s</text></svg><svg x="480"><use xlink:href="#a"></use><text font-size="1.67" x="0" y="1.67" class="f">■■■■■■■■■</text><text font-size="1.67" x="34.068" y="1.67" class="g">28%</text><text font-size="1.67" x="38.07599999999999" y="1.67" class="g">|</text><text font-size="1.67" x="40.08" y="1.67" class="g">P:</text><text font-size="1.67" x="43.086" y="1.67" class="g">Adding</text><text font-size="1.67" x="50.1" y="1.67" class="g">7</text><text font-size="1.67" x="52.104" y="1.67" class="g">ETA:</text><text font-size="1.67" x="58.116" y="1.67" class="g">3s</text></svg><svg x="560"><use xlink:href="#a"></use><text font-size="1.67" x="0" y="1.67" class="f">■■■■■■■■■■■</text><text font-size="1.67" x="34.068" y="1.67" class="g">32%</text><text font-size="1.67" x="38.07599999999999" y="1.67" class="g">|</text><text font-size="1.67" x="40.08" y="1.67" class="g">P:</text><text font-size="1.67" x="43.086" y="1.67" class="g">Adding</text><text font-size="1.67" x="50.1" y="1.67" class="g">8</text><text font-size="1.67" x="52.104" y="1.67" class="g">ETA:</text><text font-size="1.67" x="58.116" y="1.67" class="g">2s</text></svg><svg x="640"><use xlink:href="#a"></use><text font-size="1.67" x="0" y="1.67" class="f">■■■■■■■■■■■■■</text><text font-size="1.67" x="34.068" y="1.67" class="g">40%</text><text font-size="1.67" x="38.07599999999999" y="1.67" class="g">|</text><text font-size="1.67" x="40.08" y="1.67" class="g">P:</text><text font-size="1.67" x="43.086" y="1.67" class="g">Adding</text><text font-size="1.67" x="50.1" y="1.67" class="g">10</text><text font-size="1.67" x="53.105999999999995" y="1.67" class="g">ETA:</text><text font-size="1.67" x="59.117999999999995" y="1.67" class="g">2s</text></svg><svg x="720"><use xlink:href="#a"></use><text font-size="1.67" x="0" y="1.67" class="f">■■■■■■■■■■■■■■</text><text font-size="1.67" x="34.068" y="1.67" class="g">44%</text><text font-size="1.67" x="38.07599999999999" y="1.67" class="g">|</text><text font-size="1.67" x="40.08" y="1.67" class="g">P:</text><text font-size="1.67" x="43.086" y="1.67" class="g">Adding</text><text font-size="1.67" x="50.1" y="1.67" class="g">11</text><text font-size="1.67" x="53.105999999999995" y="1.67" class="g">ETA:</text><text font-size="1.67" x="59.117999999999995" y="1.67" class="g">2s</text></svg><svg x="800"><use xlink:href="#a"></use><text font-size="1.67" x="0" y="1.67" class="f">■■■■■■■■■■■■■■■■■</text><text font-size="1.67" x="34.068" y="1.67" class="g">52%</text><text font-size="1.67" x="38.07599999999999" y="1.67" class="g">|</text><text font-size="1.67" x="40.08" y="1.67" class="g">P:</text><text font-size="1.67" x="43.086" y="1.67" class="g">Adding</text><text font-size="1.67" x="50.1" y="1.67" class="g">13</text><text font-size="1.67" x="53.105999999999995" y="1.67" class="g">ETA:</text><text font-size="1.67" x="59.117999999999995" y="1.67" class="g">2s</text></svg><svg x="880"><use xlink:href="#a"></use><text font-size="1.67" x="0" y="1.67" class="f">■■■■■■■■■■■■■■■■■■</text><text font-size="1.67" x="34.068" y="1.67" class="g">56%</text><text font-size="1.67" x="38.07599999999999" y="1.67" class="g">|</text><text font-size="1.67" x="40.08" y="1.67" class="g">P:</text><text font-size="1.67" x="43.086" y="1.67" class="g">Adding</text><text font-size="1.67" x="50.1" y="1.67" class="g">14</text><text font-size="1.67" x="53.105999999999995" y="1.67" class="g">ETA:</text><text font-size="1.67" x="59.117999999999995" y="1.67" class="g">2s</text></svg><svg x="960"><use xlink:href="#a"></use><text font-size="1.67" x="0" y="1.67" class="f">■■■■■■■■■■■■■■■■■■■■</text><text font-size="1.67" x="34.068" y="1.67" class="g">64%</text><text font-size="1.67" x="38.07599999999999" y="1.67" class="g">|</text><text font-size="1.67" x="40.08" y="1.67" class="g">P:</text><text font-size="1.67" x="43.086" y="1.67" class="g">Adding</text><text font-size="1.67" x="50.1" y="1.67" class="g">16</text><text font-size="1.67" x="53.105999999999995" y="1.67" class="g">ETA:</text><text font-size="1.67" x="59.117999999999995" y="1.67" class="g">1s</text></svg><svg x="1040"><use xlink:href="#a"></use><text font-size="1.67" x="0" y="1.67" class="f">■■■■■■■■■■■■■■■■■■■■■■■</text><text font-size="1.67" x="34.068" y="1.67" class="g">72%</text><text font-size="1.67" x="38.07599999999999" y="1.67" class="g">|</text><text font-size="1.67" x="40.08" y="1.67" class="g">P:</text><text font-size="1.67" x="43.086" y="1.67" class="g">Adding</text><text font-size="1.67" x="50.1" y="1.67" class="g">18</text><text font-size="1.67" x="53.105999999999995" y="1.67" class="g">ETA:</text><text font-size="1.67" x="59.117999999999995" y="1.67" class="g">1s</text></svg><svg x="1120"><use xlink:href="#a"></use><text font-size="1.67" x="0" y="1.67" class="f">■■■■■■■■■■■■■■■■■■■■■■■■</text><text font-size="1.67" x="34.068" y="1.67" class="g">76%</text><text font-size="1.67" x="38.07599999999999" y="1.67" class="g">|</text><text font-size="1.67" x="40.08" y="1.67" class="g">P:</text><text font-size="1.67" x="43.086" y="1.67" class="g">Adding</text><text font-size="1.67" x="50.1" y="1.67" class="g">19</text><text font-size="1.67" x="53.105999999999995" y="1.67" class="g">ETA:</text><text font-size="1.67" x="59.117999999999995" y="1.67" class="g">1s</text></svg><svg x="1200"><use xlink:href="#a"></use><text font-size="1.67" x="0" y="1.67" class="f">■■■■■■■■■■■■■■■■■■■■■■■■■■</text><text font-size="1.67" x="34.068" y="1.67" class="g">84%</text><text font-size="1.67" x="38.07599999999999" y="1.67" class="g">|</text><text font-size="1.67" x="40.08" y="1.67" class="g">P:</text><text font-size="1.67" x="43.086" y="1.67" class="g">Adding</text><text font-size="1.67" x="50.1" y="1.67" class="g">21</text><text font-size="1.67" x="53.105999999999995" y="1.67" class="g">ETA:</text><text font-size="1.67" x="59.117999999999995" y="1.67" class="g">1s</text></svg><svg x="1280"><use xlink:href="#a"></use><text font-size="1.67" x="0" y="1.67" class="f">■■■■■■■■■■■■■■■■■■■■■■■■■■■</text><text font-size="1.67" x="34.068" y="1.67" class="g">88%</text><text font-size="1.67" x="38.07599999999999" y="1.67" class="g">|</text><text font-size="1.67" x="40.08" y="1.67" class="g">P:</text><text font-size="1.67" x="43.086" y="1.67" class="g">Adding</text><text font-size="1.67" x="50.1" y="1.67" class="g">22</text><text font-size="1.67" x="53.105999999999995" y="1.67" class="g">ETA:</text><text font-size="1.67" x="59.117999999999995" y="1.67" class="g">0s</text></svg><svg x="1360"><use xlink:href="#a"></use><text font-size="1.67" x="0" y="1.67" class="f">■■■■■■■■■■■■■■■■■■■■■■■■■■■■■■</text><text font-size="1.67" x="34.068" y="1.67" class="g">96%</text><text font-size="1.67" x="38.07599999999999" y="1.67" class="g">|</text><text font-size="1.67" x="40.08" y="1.67" class="g">P:</text><text font-size="1.67" x="43.086" y="1.67" class="g">Adding</text><text font-size="1.67" x="50.1" y="1.67" class="g">24</text><text font-size="1.67" x="53.105999999999995" y="1.67" class="g">ETA:</text><text font-size="1.67" x="59.117999999999995" y="1.67" class="g">0s</text></svg><svg x="1440"><use xlink:href="#a"></use><text font-size="1.67" x="0" y="1.67" class="f">■■■■■■■■■■■■■■■■■■■■■■■■■■■■■■■</text><text font-size="1.67" x="33.065999999999995" y="1.67" class="g">100%</text><text font-size="1.67" x="38.07599999999999" y="1.67" class="g">|</text><text font-size="1.67" x="40.08" y="1.67" class="g">P:</text><text font-size="1.67" x="43.086" y="1.67" class="g">Adding</text><text font-size="1.67" x="50.1" y="1.67" class="g">25</text><text font-size="1.67" x="53.105999999999995" y="1.67" class="g">ETA:</text><text font-size="1.67" x="59.117999999999995" y="1.67" class="g">0s</text></svg><svg x="1520"><use xlink:href="#a"></use></svg><svg x="1600"><use xlink:href="#a"></use></svg><svg x="1680"><use xlink:href="#a"></use></svg><svg x="1760"><use xlink:href="#a"></use></svg></svg></g></g></svg></svg>