<svg class="bob" font-family="monospace" font-size="14" height="384" width="560" xmlns="http://www.w3.org/2000/svg">
<defs>
<marker id="triangle" markerHeight="8" markerWidth="8" orient="auto" refX="4" refY="2" viewBox="0 0 8 4">
<polygon fill="black" points="0,0 0,4 8,2 0,0"/>
</marker>
<marker id="clear_triangle" markerHeight="10" markerWidth="10" orient="auto" refX="1" refY="7" viewBox="0 0 20 14">
<polygon fill="none" points="2,2 2,12 18,7 2,2" stroke="black" stroke-width="2"/>
</marker>
<marker id="circle" markerHeight="5" markerWidth="5" orient="auto" refX="10" refY="10" viewBox="0 0 20 20">
<circle cx="10" cy="10" fill="black" r="8"/>
</marker>
<marker id="square" markerHeight="5" markerWidth="5" orient="auto" refX="10" refY="10" viewBox="0 0 20 20">
<rect fill="black" height="20" width="20" x="0" y="0"/>
</marker>
<marker id="open_circle" markerHeight="10" markerWidth="10" orient="auto" refX="10" refY="10" viewBox="0 0 20 20">
<circle cx="10" cy="10" fill="white" r="4" stroke="black" stroke-width="2"/>
</marker>
<marker id="big_open_circle" markerHeight="20" markerWidth="20" orient="auto" refX="20" refY="20" viewBox="0 0 40 40">
<circle cx="20" cy="20" fill="white" r="6" stroke="black" stroke-width="2"/>
</marker>
</defs>
<style type="text/css">

    line,path {
      stroke: black;
      stroke-width: 2;
      stroke-opacity: 1;
      fill-opacity: 1;
      stroke-linecap: round;
      stroke-linejoin: miter;
    }
    line.dashed {
        stroke-dasharray: 5;
    }
    circle.solid {
      fill:black;
      stroke: black;
      stroke-width: 2;
      stroke-opacity: 1;
      fill-opacity: 1;
      stroke-linecap: round;
      stroke-linejoin: miter;
    }
    circle.open {
      fill:none;
      stroke: black;
      stroke-width: 2;
      stroke-opacity: 1;
      fill-opacity: 1;
      stroke-linecap: round;
      stroke-linejoin: miter;
    }
    tspan.head{
        fill: none;
        stroke: none;
    }
    
</style>
<rect fill="white" height="384" width="560" x="0" y="0"/>
<g>
<line x1="12" x2="12" y1="12" y2="52"/>
<path d="M 12 52 A 4 4 0 0 0 16 56" fill="none"/>
<path d="M 16 8 A 4 4 0 0 0 12 12" fill="none"/>
</g>
<g>
<line x1="16" x2="120" y1="8" y2="8"/>
<path d="M 124 12 A 4 4 0 0 0 120 8" fill="none"/>
</g>
<g>
<line x1="16" x2="120" y1="56" y2="56"/>
<path d="M 120 56 A 4 4 0 0 0 124 52" fill="none"/>
</g>
<g>
<line x1="16" x2="136" y1="342" y2="342"/>
</g>
<g>
<line marker-end="url(#triangle)" x1="16" x2="12" y1="344" y2="344"/>
</g>
<g>
<line x1="16" x2="136" y1="346" y2="346"/>
</g>
<g>
<line x1="124" x2="124" y1="12" y2="52"/>
</g>
<g>
<line marker-end="url(#triangle)" x1="136" x2="140" y1="344" y2="344"/>
</g>
<g>
<line x1="204" x2="204" y1="12" y2="52"/>
<path d="M 204 52 A 4 4 0 0 0 208 56" fill="none"/>
<path d="M 208 8 A 4 4 0 0 0 204 12" fill="none"/>
</g>
<g>
<line x1="208" x2="304" y1="8" y2="8"/>
<path d="M 308 12 A 4 4 0 0 0 304 8" fill="none"/>
</g>
<g>
<line x1="208" x2="304" y1="56" y2="56"/>
<path d="M 304 56 A 4 4 0 0 0 308 52" fill="none"/>
</g>
<g>
<line x1="212" x2="204" y1="112" y2="120"/>
<line x1="212" x2="220" y1="112" y2="120"/>
<line x1="228" x2="220" y1="112" y2="120"/>
<line x1="228" x2="236" y1="112" y2="120"/>
<line x1="244" x2="236" y1="112" y2="120"/>
<line x1="244" x2="252" y1="112" y2="120"/>
<line x1="260" x2="252" y1="112" y2="120"/>
<line x1="260" x2="268" y1="112" y2="120"/>
<line x1="276" x2="268" y1="112" y2="120"/>
<line x1="276" x2="284" y1="112" y2="120"/>
<line x1="292" x2="284" y1="112" y2="120"/>
<line x1="292" x2="300" y1="112" y2="120"/>
<line x1="308" x2="300" y1="112" y2="120"/>
<line x1="308" x2="316" y1="112" y2="120"/>
</g>
<g>
<line x1="212" x2="204" y1="176" y2="184"/>
<line x1="212" x2="220" y1="176" y2="184"/>
<line x1="228" x2="220" y1="176" y2="184"/>
<line x1="228" x2="236" y1="176" y2="184"/>
<line x1="244" x2="236" y1="176" y2="184"/>
<line x1="244" x2="252" y1="176" y2="184"/>
<line x1="260" x2="252" y1="176" y2="184"/>
<line x1="260" x2="268" y1="176" y2="184"/>
<line x1="276" x2="268" y1="176" y2="184"/>
<line x1="276" x2="284" y1="176" y2="184"/>
<line x1="292" x2="284" y1="176" y2="184"/>
<line x1="292" x2="300" y1="176" y2="184"/>
<line x1="308" x2="300" y1="176" y2="184"/>
<line x1="308" x2="316" y1="176" y2="184"/>
</g>
<g>
<line x1="212" x2="204" y1="224" y2="232"/>
<line x1="212" x2="220" y1="224" y2="232"/>
<line x1="228" x2="220" y1="224" y2="232"/>
<line x1="228" x2="236" y1="224" y2="232"/>
<line x1="244" x2="236" y1="224" y2="232"/>
<line x1="244" x2="252" y1="224" y2="232"/>
<line x1="260" x2="252" y1="224" y2="232"/>
<line x1="260" x2="268" y1="224" y2="232"/>
<line x1="276" x2="268" y1="224" y2="232"/>
<line x1="276" x2="284" y1="224" y2="232"/>
<line x1="292" x2="284" y1="224" y2="232"/>
<line x1="292" x2="300" y1="224" y2="232"/>
<line x1="308" x2="300" y1="224" y2="232"/>
<line x1="308" x2="316" y1="224" y2="232"/>
</g>
<g>
<line x1="212" x2="204" y1="272" y2="280"/>
<line x1="212" x2="220" y1="272" y2="280"/>
<line x1="228" x2="220" y1="272" y2="280"/>
<line x1="228" x2="236" y1="272" y2="280"/>
<line x1="244" x2="236" y1="272" y2="280"/>
<line x1="244" x2="252" y1="272" y2="280"/>
<line x1="260" x2="252" y1="272" y2="280"/>
<line x1="260" x2="268" y1="272" y2="280"/>
<line x1="276" x2="268" y1="272" y2="280"/>
<line x1="276" x2="284" y1="272" y2="280"/>
<line x1="292" x2="284" y1="272" y2="280"/>
<line x1="292" x2="300" y1="272" y2="280"/>
<line x1="308" x2="300" y1="272" y2="280"/>
<line x1="308" x2="316" y1="272" y2="280"/>
</g>
<g>
<line x1="308" x2="308" y1="12" y2="52"/>
</g>
<g>
<line marker-end="url(#triangle)" x1="320" x2="324" y1="120" y2="120"/>
</g>
<g>
<line marker-end="url(#triangle)" x1="320" x2="324" y1="184" y2="184"/>
</g>
<g>
<line marker-end="url(#triangle)" x1="320" x2="324" y1="232" y2="232"/>
</g>
<g>
<line marker-end="url(#triangle)" x1="320" x2="324" y1="280" y2="280"/>
</g>
<g>
<line marker-start="url(#circle)" x1="332" x2="328" y1="120" y2="120"/>
<line marker-end="url(#open_circle)" marker-start="url(#circle)" x1="332" x2="364" y1="120" y2="120"/>
</g>
<g>
<line x1="332" x2="332" y1="136" y2="128"/>
<line marker-end="url(#open_circle)" x1="332" x2="364" y1="136" y2="136"/>
</g>
<g>
<line marker-start="url(#circle)" x1="332" x2="328" y1="184" y2="184"/>
<line marker-end="url(#open_circle)" marker-start="url(#circle)" x1="332" x2="364" y1="184" y2="184"/>
</g>
<g>
<line x1="332" x2="332" y1="200" y2="192"/>
<line marker-end="url(#open_circle)" x1="332" x2="364" y1="200" y2="200"/>
</g>
<g>
<line marker-start="url(#circle)" x1="332" x2="328" y1="232" y2="232"/>
<line marker-end="url(#open_circle)" marker-start="url(#circle)" x1="332" x2="364" y1="232" y2="232"/>
</g>
<g>
<line x1="332" x2="332" y1="248" y2="240"/>
<line marker-end="url(#open_circle)" x1="332" x2="364" y1="248" y2="248"/>
</g>
<g>
<line marker-start="url(#circle)" x1="332" x2="328" y1="280" y2="280"/>
<line marker-end="url(#open_circle)" marker-start="url(#circle)" x1="332" x2="364" y1="280" y2="280"/>
</g>
<g>
<line x1="332" x2="332" y1="296" y2="288"/>
<line marker-end="url(#open_circle)" x1="332" x2="364" y1="296" y2="296"/>
</g>
<g>
<line x1="380" x2="380" y1="12" y2="52"/>
<path d="M 380 52 A 4 4 0 0 0 384 56" fill="none"/>
<path d="M 384 8 A 4 4 0 0 0 380 12" fill="none"/>
</g>
<g>
<line x1="384" x2="488" y1="8" y2="8"/>
<path d="M 492 12 A 4 4 0 0 0 488 8" fill="none"/>
</g>
<g>
<line x1="384" x2="488" y1="56" y2="56"/>
<path d="M 488 56 A 4 4 0 0 0 492 52" fill="none"/>
</g>
<g>
<line x1="392" x2="512" y1="342" y2="342"/>
</g>
<g>
<line marker-end="url(#triangle)" x1="392" x2="388" y1="344" y2="344"/>
</g>
<g>
<line x1="392" x2="512" y1="346" y2="346"/>
</g>
<g>
<line x1="492" x2="492" y1="12" y2="52"/>
</g>
<g>
<line marker-end="url(#triangle)" x1="512" x2="516" y1="344" y2="344"/>
</g>
<g>
<text x="9" y="124">
p &lt;- progressor(3)
</text>
</g>
<g>
<text x="9" y="156">
a &lt;- 1
</text>
</g>
<g>
<text x="9" y="172">
b &lt;- 2
</text>
</g>
<g>
<text x="9" y="188">
p(message = &#39;init&#39;)
</text>
</g>
<g>
<text x="9" y="220">
c &lt;- a+b
</text>
</g>
<g>
<text x="9" y="236">
p(message = &#39;sum&#39;)
</text>
</g>
<g>
<text x="9" y="268">
d &lt;- sqrt(c)
</text>
</g>
<g>
<text x="9" y="284">
p(message = &#39;sqrt&#39;)
</text>
</g>
<g>
<text x="25" y="28">
R
</text>
</g>
<g>
<text x="25" y="364">
controlled
</text>
</g>
<g>
<text x="25" y="380">
the
</text>
</g>
<g>
<text x="41" y="28">
code
</text>
</g>
<g>
<text x="57" y="380">
DEVELOPER
</text>
</g>
<g>
<text x="113" y="364">
by
</text>
</g>
<g>
<text x="209" y="108">
progression
</text>
</g>
<g>
<text x="209" y="172">
progression
</text>
</g>
<g>
<text x="209" y="220">
progression
</text>
</g>
<g>
<text x="209" y="268">
progression
</text>
</g>
<g>
<text x="217" y="28">
signaled
</text>
</g>
<g>
<text x="217" y="44">
conditions
</text>
</g>
<g>
<text x="377" y="124">
[---------]   0%
</text>
</g>
<g>
<text x="377" y="140">
♫
</text>
</g>
<g>
<text x="377" y="188">
[==&gt;------]  33% init
</text>
</g>
<g>
<text x="377" y="204">
𝅘𝅥𝅯
</text>
</g>
<g>
<text x="377" y="236">
[=====&gt;---]  66% sum
</text>
</g>
<g>
<text x="377" y="252">
𝅘𝅥𝅯
</text>
</g>
<g>
<text x="377" y="284">
[========&gt;] 100% sqrt
</text>
</g>
<g>
<text x="377" y="300">
♫
</text>
</g>
<g>
<text x="393" y="28">
progression
</text>
</g>
<g>
<text x="393" y="44">
handler
</text>
</g>
<g>
<text x="401" y="364">
controlled
</text>
</g>
<g>
<text x="401" y="380">
the
</text>
</g>
<g>
<text x="433" y="380">
END
</text>
</g>
<g>
<text x="465" y="380">
USER
</text>
</g>
<g>
<text x="489" y="364">
by
</text>
</g>
<g>
<line marker-end="url(#open_circle)" marker-start="url(#circle)" x1="196" x2="196" y1="88" y2="120"/>
<line marker-end="url(#open_circle)" marker-start="url(#open_circle)" x1="196" x2="196" y1="120" y2="184"/>
<line marker-start="url(#open_circle)" x1="196" x2="200" y1="120" y2="120"/>
<line marker-end="url(#open_circle)" marker-start="url(#open_circle)" x1="196" x2="196" y1="184" y2="232"/>
<line marker-start="url(#open_circle)" x1="196" x2="200" y1="184" y2="184"/>
<line marker-end="url(#open_circle)" marker-start="url(#open_circle)" x1="196" x2="196" y1="232" y2="280"/>
<line marker-start="url(#open_circle)" x1="196" x2="200" y1="232" y2="232"/>
<line marker-end="url(#circle)" marker-start="url(#open_circle)" x1="196" x2="196" y1="280" y2="312"/>
<line marker-start="url(#open_circle)" x1="196" x2="200" y1="280" y2="280"/>
</g>
</svg>