<svg class="bob" font-family="monospace" font-size="14" height="608" width="656" xmlns="http://www.w3.org/2000/svg">
<defs>
<marker id="triangle" markerHeight="8" markerWidth="8" orient="auto" refX="4" refY="2" viewBox="0 0 8 4">
<polygon fill="black" points="0,0 0,4 8,2 0,0"/>
</marker>
<marker id="clear_triangle" markerHeight="10" markerWidth="10" orient="auto" refX="1" refY="7" viewBox="0 0 20 14">
<polygon fill="none" points="2,2 2,12 18,7 2,2" stroke="black" stroke-width="2"/>
</marker>
<marker id="circle" markerHeight="5" markerWidth="5" orient="auto" refX="10" refY="10" viewBox="0 0 20 20">
<circle cx="10" cy="10" fill="black" r="8"/>
</marker>
<marker id="square" markerHeight="5" markerWidth="5" orient="auto" refX="10" refY="10" viewBox="0 0 20 20">
<rect fill="black" height="20" width="20" x="0" y="0"/>
</marker>
<marker id="open_circle" markerHeight="10" markerWidth="10" orient="auto" refX="10" refY="10" viewBox="0 0 20 20">
<circle cx="10" cy="10" fill="white" r="4" stroke="black" stroke-width="2"/>
</marker>
<marker id="big_open_circle" markerHeight="20" markerWidth="20" orient="auto" refX="20" refY="20" viewBox="0 0 40 40">
<circle cx="20" cy="20" fill="white" r="6" stroke="black" stroke-width="2"/>
</marker>
</defs>
<style type="text/css">

    line,path {
      stroke: black;
      stroke-width: 2;
      stroke-opacity: 1;
      fill-opacity: 1;
      stroke-linecap: round;
      stroke-linejoin: miter;
    }
    line.dashed {
        stroke-dasharray: 5;
    }
    circle.solid {
      fill:black;
      stroke: black;
      stroke-width: 2;
      stroke-opacity: 1;
      fill-opacity: 1;
      stroke-linecap: round;
      stroke-linejoin: miter;
    }
    circle.open {
      fill:none;
      stroke: black;
      stroke-width: 2;
      stroke-opacity: 1;
      fill-opacity: 1;
      stroke-linecap: round;
      stroke-linejoin: miter;
    }
    tspan.head{
        fill: none;
        stroke: none;
    }
    
</style>
<rect fill="white" height="608" width="656" x="0" y="0"/>
<g>
<line x1="12" x2="12" y1="12" y2="52"/>
<path d="M 12 52 A 4 4 0 0 0 16 56" fill="none"/>
<path d="M 16 8 A 4 4 0 0 0 12 12" fill="none"/>
</g>
<g>
<line x1="16" x2="120" y1="8" y2="8"/>
<path d="M 124 12 A 4 4 0 0 0 120 8" fill="none"/>
</g>
<g>
<line x1="16" x2="120" y1="56" y2="56"/>
<path d="M 120 56 A 4 4 0 0 0 124 52" fill="none"/>
</g>
<g>
<line x1="88" x2="208" y1="550" y2="550"/>
</g>
<g>
<line marker-end="url(#triangle)" x1="88" x2="84" y1="552" y2="552"/>
</g>
<g>
<line x1="88" x2="208" y1="554" y2="554"/>
</g>
<g>
<line x1="124" x2="124" y1="12" y2="52"/>
</g>
<g>
<line x1="204" x2="204" y1="156" y2="196"/>
<path d="M 204 196 A 4 4 0 0 0 208 200" fill="none"/>
</g>
<g>
<line marker-end="url(#circle)" x1="204" x2="204" y1="492" y2="520"/>
<path d="M 208 488 A 4 4 0 0 0 204 492" fill="none"/>
</g>
<g>
<line x1="208" x2="256" y1="200" y2="200"/>
<path d="M 260 204 A 4 4 0 0 0 256 200" fill="none"/>
<line marker-end="url(#open_circle)" x1="260" x2="260" y1="204" y2="248"/>
<line marker-end="url(#open_circle)" marker-start="url(#open_circle)" x1="260" x2="260" y1="248" y2="312"/>
<line marker-start="url(#open_circle)" x1="260" x2="264" y1="248" y2="248"/>
<line marker-end="url(#open_circle)" marker-start="url(#open_circle)" x1="260" x2="260" y1="312" y2="360"/>
<line marker-start="url(#open_circle)" x1="260" x2="264" y1="312" y2="312"/>
<line marker-start="url(#open_circle)" x1="260" x2="260" y1="360" y2="384"/>
<line marker-start="url(#open_circle)" x1="260" x2="264" y1="360" y2="360"/>
</g>
<g>
<line x1="208" x2="256" y1="488" y2="488"/>
<path d="M 256 488 A 4 4 0 0 0 260 484" fill="none"/>
<line marker-start="url(#open_circle)" x1="260" x2="260" y1="440" y2="484"/>
<line marker-start="url(#open_circle)" x1="260" x2="264" y1="440" y2="440"/>
</g>
<g>
<line marker-end="url(#triangle)" x1="208" x2="212" y1="552" y2="552"/>
</g>
<g>
<line x1="276" x2="268" y1="240" y2="248"/>
<line x1="276" x2="284" y1="240" y2="248"/>
<line x1="292" x2="284" y1="240" y2="248"/>
<line x1="292" x2="300" y1="240" y2="248"/>
<line x1="308" x2="300" y1="240" y2="248"/>
<line x1="308" x2="316" y1="240" y2="248"/>
<line x1="324" x2="316" y1="240" y2="248"/>
<line x1="324" x2="332" y1="240" y2="248"/>
<line x1="340" x2="332" y1="240" y2="248"/>
<line x1="340" x2="348" y1="240" y2="248"/>
<line x1="356" x2="348" y1="240" y2="248"/>
<line x1="356" x2="364" y1="240" y2="248"/>
<line x1="372" x2="364" y1="240" y2="248"/>
<line x1="372" x2="380" y1="240" y2="248"/>
</g>
<g>
<line x1="276" x2="268" y1="304" y2="312"/>
<line x1="276" x2="284" y1="304" y2="312"/>
<line x1="292" x2="284" y1="304" y2="312"/>
<line x1="292" x2="300" y1="304" y2="312"/>
<line x1="308" x2="300" y1="304" y2="312"/>
<line x1="308" x2="316" y1="304" y2="312"/>
<line x1="324" x2="316" y1="304" y2="312"/>
<line x1="324" x2="332" y1="304" y2="312"/>
<line x1="340" x2="332" y1="304" y2="312"/>
<line x1="340" x2="348" y1="304" y2="312"/>
<line x1="356" x2="348" y1="304" y2="312"/>
<line x1="356" x2="364" y1="304" y2="312"/>
<line x1="372" x2="364" y1="304" y2="312"/>
<line x1="372" x2="380" y1="304" y2="312"/>
</g>
<g>
<line x1="276" x2="268" y1="352" y2="360"/>
<line x1="276" x2="284" y1="352" y2="360"/>
<line x1="292" x2="284" y1="352" y2="360"/>
<line x1="292" x2="300" y1="352" y2="360"/>
<line x1="308" x2="300" y1="352" y2="360"/>
<line x1="308" x2="316" y1="352" y2="360"/>
<line x1="324" x2="316" y1="352" y2="360"/>
<line x1="324" x2="332" y1="352" y2="360"/>
<line x1="340" x2="332" y1="352" y2="360"/>
<line x1="340" x2="348" y1="352" y2="360"/>
<line x1="356" x2="348" y1="352" y2="360"/>
<line x1="356" x2="364" y1="352" y2="360"/>
<line x1="372" x2="364" y1="352" y2="360"/>
<line x1="372" x2="380" y1="352" y2="360"/>
</g>
<g>
<line x1="276" x2="268" y1="432" y2="440"/>
<line x1="276" x2="284" y1="432" y2="440"/>
<line x1="292" x2="284" y1="432" y2="440"/>
<line x1="292" x2="300" y1="432" y2="440"/>
<line x1="308" x2="300" y1="432" y2="440"/>
<line x1="308" x2="316" y1="432" y2="440"/>
<line x1="324" x2="316" y1="432" y2="440"/>
<line x1="324" x2="332" y1="432" y2="440"/>
<line x1="340" x2="332" y1="432" y2="440"/>
<line x1="340" x2="348" y1="432" y2="440"/>
<line x1="356" x2="348" y1="432" y2="440"/>
<line x1="356" x2="364" y1="432" y2="440"/>
<line x1="372" x2="364" y1="432" y2="440"/>
<line x1="372" x2="380" y1="432" y2="440"/>
</g>
<g>
<line x1="284" x2="284" y1="12" y2="52"/>
<path d="M 284 52 A 4 4 0 0 0 288 56" fill="none"/>
<path d="M 288 8 A 4 4 0 0 0 284 12" fill="none"/>
</g>
<g>
<line x1="288" x2="384" y1="8" y2="8"/>
<path d="M 388 12 A 4 4 0 0 0 384 8" fill="none"/>
</g>
<g>
<line x1="288" x2="384" y1="56" y2="56"/>
<path d="M 384 56 A 4 4 0 0 0 388 52" fill="none"/>
</g>
<g>
<line marker-end="url(#triangle)" x1="384" x2="388" y1="248" y2="248"/>
</g>
<g>
<line marker-end="url(#triangle)" x1="384" x2="388" y1="312" y2="312"/>
</g>
<g>
<line marker-end="url(#triangle)" x1="384" x2="388" y1="360" y2="360"/>
</g>
<g>
<line marker-end="url(#triangle)" x1="384" x2="388" y1="440" y2="440"/>
</g>
<g>
<line x1="388" x2="388" y1="12" y2="52"/>
</g>
<g>
<line marker-start="url(#circle)" x1="396" x2="392" y1="248" y2="248"/>
<line marker-end="url(#open_circle)" marker-start="url(#circle)" x1="396" x2="428" y1="248" y2="248"/>
</g>
<g>
<line x1="396" x2="396" y1="264" y2="256"/>
<line marker-end="url(#open_circle)" x1="396" x2="428" y1="264" y2="264"/>
</g>
<g>
<line marker-start="url(#circle)" x1="396" x2="392" y1="312" y2="312"/>
<line marker-end="url(#open_circle)" marker-start="url(#circle)" x1="396" x2="428" y1="312" y2="312"/>
</g>
<g>
<line x1="396" x2="396" y1="328" y2="320"/>
<line marker-end="url(#open_circle)" x1="396" x2="428" y1="328" y2="328"/>
</g>
<g>
<line marker-start="url(#circle)" x1="396" x2="392" y1="360" y2="360"/>
<line marker-end="url(#open_circle)" marker-start="url(#circle)" x1="396" x2="428" y1="360" y2="360"/>
</g>
<g>
<line x1="396" x2="396" y1="376" y2="368"/>
<line marker-end="url(#open_circle)" x1="396" x2="428" y1="376" y2="376"/>
</g>
<g>
<line marker-start="url(#circle)" x1="396" x2="392" y1="440" y2="440"/>
<line marker-end="url(#open_circle)" marker-start="url(#circle)" x1="396" x2="428" y1="440" y2="440"/>
</g>
<g>
<line x1="396" x2="396" y1="456" y2="448"/>
<line marker-end="url(#open_circle)" x1="396" x2="428" y1="456" y2="456"/>
</g>
<g>
<line x1="444" x2="444" y1="12" y2="52"/>
<path d="M 444 52 A 4 4 0 0 0 448 56" fill="none"/>
<path d="M 448 8 A 4 4 0 0 0 444 12" fill="none"/>
</g>
<g>
<line x1="448" x2="552" y1="8" y2="8"/>
<path d="M 556 12 A 4 4 0 0 0 552 8" fill="none"/>
</g>
<g>
<line x1="448" x2="552" y1="56" y2="56"/>
<path d="M 552 56 A 4 4 0 0 0 556 52" fill="none"/>
</g>
<g>
<line x1="456" x2="576" y1="550" y2="550"/>
</g>
<g>
<line marker-end="url(#triangle)" x1="456" x2="452" y1="552" y2="552"/>
</g>
<g>
<line x1="456" x2="576" y1="554" y2="554"/>
</g>
<g>
<line x1="556" x2="556" y1="12" y2="52"/>
</g>
<g>
<line marker-end="url(#triangle)" x1="576" x2="580" y1="552" y2="552"/>
</g>
<g>
<line class="dashed" fill="none" x1="68" x2="68" y1="240" y2="480"/>
</g>
<g>
<line class="dashed" fill="none" x1="164" x2="164" y1="384" y2="400"/>
</g>
<g>
<line class="dashed" fill="none" x1="260" x2="260" y1="384" y2="400"/>
<line marker-end="url(#open_circle)" x1="260" x2="260" y1="400" y2="440"/>
</g>
<g>
<line class="dashed" fill="none" x1="316" x2="316" y1="384" y2="400"/>
</g>
<g>
<line class="dashed" fill="none" x1="484" x2="484" y1="384" y2="400"/>
</g>
<g>
<text x="17" y="124">
library(progressr)
</text>
</g>
<g>
<text x="17" y="140">
handlers(&#39;progress&#39;, &#39;beepr&#39;)
</text>
</g>
<g>
<text x="17" y="172">
y &lt;- with_progress({
</text>
</g>
<g>
<text x="17" y="204">
})
</text>
</g>
<g>
<text x="25" y="28">
R
</text>
</g>
<g>
<text x="33" y="188">
slow_sum(1:10)
</text>
</g>
<g>
<text x="41" y="28">
code
</text>
</g>
<g>
<text x="81" y="252">
p &lt;- progressor(10)
</text>
</g>
<g>
<text x="81" y="268">
sum &lt;- 0
</text>
</g>
<g>
<text x="81" y="300">
sum &lt;- sum + x[1]
</text>
</g>
<g>
<text x="81" y="316">
p(&#39;Added 1&#39;)
</text>
</g>
<g>
<text x="81" y="348">
sum &lt;- sum + x[2]
</text>
</g>
<g>
<text x="81" y="364">
p(&#39;Added 2&#39;)
</text>
</g>
<g>
<text x="81" y="428">
sum &lt;- sum + x[10]
</text>
</g>
<g>
<text x="81" y="444">
p(&#39;Added 10&#39;)
</text>
</g>
<g>
<text x="81" y="476">
return(sum)
</text>
</g>
<g>
<text x="97" y="572">
controlled
</text>
</g>
<g>
<text x="97" y="588">
the
</text>
</g>
<g>
<text x="129" y="588">
DEVELOPER
</text>
</g>
<g>
<text x="185" y="572">
by
</text>
</g>
<g>
<text x="273" y="236">
progression
</text>
</g>
<g>
<text x="273" y="300">
progression
</text>
</g>
<g>
<text x="273" y="348">
progression
</text>
</g>
<g>
<text x="273" y="428">
progression
</text>
</g>
<g>
<text x="297" y="28">
signaled
</text>
</g>
<g>
<text x="297" y="44">
conditions
</text>
</g>
<g>
<text x="441" y="252">
[---------]
</text>
</g>
<g>
<text x="441" y="268">
♫
</text>
</g>
<g>
<text x="441" y="316">
[&gt;--------]
</text>
</g>
<g>
<text x="441" y="332">
𝅘𝅥𝅯
</text>
</g>
<g>
<text x="441" y="364">
[=&gt;-------]
</text>
</g>
<g>
<text x="441" y="380">
𝅘𝅥𝅯
</text>
</g>
<g>
<text x="441" y="444">
[========&gt;] 100% Added 10
</text>
</g>
<g>
<text x="441" y="460">
♫
</text>
</g>
<g>
<text x="457" y="28">
progression
</text>
</g>
<g>
<text x="457" y="44">
handler
</text>
</g>
<g>
<text x="465" y="572">
controlled
</text>
</g>
<g>
<text x="465" y="588">
the
</text>
</g>
<g>
<text x="497" y="588">
END
</text>
</g>
<g>
<text x="529" y="588">
USER
</text>
</g>
<g>
<text x="545" y="316">
10% Added 1
</text>
</g>
<g>
<text x="545" y="364">
20% Added 2
</text>
</g>
<g>
<text x="553" y="252">
0%
</text>
</g>
<g>
<text x="553" y="572">
by
</text>
</g>
<g>
<line marker-start="url(#open_circle)" x1="204" x2="204" y1="88" y2="116"/>
</g>
</svg>