<svg class="bob" font-family="monospace" font-size="14" height="544" width="688" xmlns="http://www.w3.org/2000/svg">
<defs>
<marker id="triangle" markerHeight="8" markerWidth="8" orient="auto" refX="4" refY="2" viewBox="0 0 8 4">
<polygon fill="black" points="0,0 0,4 8,2 0,0"/>
</marker>
<marker id="clear_triangle" markerHeight="10" markerWidth="10" orient="auto" refX="1" refY="7" viewBox="0 0 20 14">
<polygon fill="none" points="2,2 2,12 18,7 2,2" stroke="black" stroke-width="2"/>
</marker>
<marker id="circle" markerHeight="5" markerWidth="5" orient="auto" refX="10" refY="10" viewBox="0 0 20 20">
<circle cx="10" cy="10" fill="black" r="8"/>
</marker>
<marker id="square" markerHeight="5" markerWidth="5" orient="auto" refX="10" refY="10" viewBox="0 0 20 20">
<rect fill="black" height="20" width="20" x="0" y="0"/>
</marker>
<marker id="open_circle" markerHeight="10" markerWidth="10" orient="auto" refX="10" refY="10" viewBox="0 0 20 20">
<circle cx="10" cy="10" fill="white" r="4" stroke="black" stroke-width="2"/>
</marker>
<marker id="big_open_circle" markerHeight="20" markerWidth="20" orient="auto" refX="20" refY="20" viewBox="0 0 40 40">
<circle cx="20" cy="20" fill="white" r="6" stroke="black" stroke-width="2"/>
</marker>
</defs>
<style type="text/css">

    line,path {
      stroke: black;
      stroke-width: 2;
      stroke-opacity: 1;
      fill-opacity: 1;
      stroke-linecap: round;
      stroke-linejoin: miter;
    }
    line.dashed {
        stroke-dasharray: 5;
    }
    circle.solid {
      fill:black;
      stroke: black;
      stroke-width: 2;
      stroke-opacity: 1;
      fill-opacity: 1;
      stroke-linecap: round;
      stroke-linejoin: miter;
    }
    circle.open {
      fill:none;
      stroke: black;
      stroke-width: 2;
      stroke-opacity: 1;
      fill-opacity: 1;
      stroke-linecap: round;
      stroke-linejoin: miter;
    }
    tspan.head{
        fill: none;
        stroke: none;
    }
    
</style>
<rect fill="white" height="544" width="688" x="0" y="0"/>
<g>
<line x1="12" x2="12" y1="12" y2="52"/>
<path d="M 12 52 A 4 4 0 0 0 16 56" fill="none"/>
<path d="M 16 8 A 4 4 0 0 0 12 12" fill="none"/>
</g>
<g>
<line x1="16" x2="120" y1="8" y2="8"/>
<path d="M 124 12 A 4 4 0 0 0 120 8" fill="none"/>
</g>
<g>
<line x1="16" x2="120" y1="56" y2="56"/>
<path d="M 120 56 A 4 4 0 0 0 124 52" fill="none"/>
</g>
<g>
<line x1="88" x2="208" y1="486" y2="486"/>
</g>
<g>
<line marker-end="url(#triangle)" x1="88" x2="84" y1="488" y2="488"/>
</g>
<g>
<line x1="88" x2="208" y1="490" y2="490"/>
</g>
<g>
<line x1="124" x2="124" y1="12" y2="52"/>
</g>
<g>
<line marker-end="url(#circle)" x1="204" x2="204" y1="428" y2="456"/>
<path d="M 208 424 A 4 4 0 0 0 204 428" fill="none"/>
</g>
<g>
<line x1="208" x2="288" y1="136" y2="136"/>
<path d="M 204 132 A 4 4 0 0 0 208 136" fill="none"/>
<path d="M 292 140 A 4 4 0 0 0 288 136" fill="none"/>
<line marker-start="url(#open_circle)" x1="204" x2="204" y1="88" y2="132"/>
<line marker-end="url(#open_circle)" x1="292" x2="292" y1="140" y2="184"/>
<line marker-end="url(#open_circle)" marker-start="url(#open_circle)" x1="292" x2="292" y1="184" y2="248"/>
<line marker-start="url(#open_circle)" x1="292" x2="296" y1="184" y2="184"/>
<line marker-end="url(#open_circle)" marker-start="url(#open_circle)" x1="292" x2="292" y1="248" y2="296"/>
<line marker-start="url(#open_circle)" x1="292" x2="296" y1="248" y2="248"/>
<line marker-start="url(#open_circle)" x1="292" x2="292" y1="296" y2="320"/>
<line marker-start="url(#open_circle)" x1="292" x2="296" y1="296" y2="296"/>
</g>
<g>
<line x1="208" x2="288" y1="424" y2="424"/>
<path d="M 288 424 A 4 4 0 0 0 292 420" fill="none"/>
<line marker-start="url(#open_circle)" x1="292" x2="292" y1="376" y2="420"/>
<line marker-start="url(#open_circle)" x1="292" x2="296" y1="376" y2="376"/>
</g>
<g>
<line marker-end="url(#triangle)" x1="208" x2="212" y1="488" y2="488"/>
</g>
<g>
<line x1="308" x2="308" y1="12" y2="52"/>
<path d="M 308 52 A 4 4 0 0 0 312 56" fill="none"/>
<path d="M 312 8 A 4 4 0 0 0 308 12" fill="none"/>
</g>
<g>
<line x1="308" x2="300" y1="176" y2="184"/>
<line x1="308" x2="316" y1="176" y2="184"/>
<line x1="324" x2="316" y1="176" y2="184"/>
<line x1="324" x2="332" y1="176" y2="184"/>
<line x1="340" x2="332" y1="176" y2="184"/>
<line x1="340" x2="348" y1="176" y2="184"/>
<line x1="356" x2="348" y1="176" y2="184"/>
<line x1="356" x2="364" y1="176" y2="184"/>
<line x1="372" x2="364" y1="176" y2="184"/>
<line x1="372" x2="380" y1="176" y2="184"/>
<line x1="388" x2="380" y1="176" y2="184"/>
<line x1="388" x2="396" y1="176" y2="184"/>
<line x1="404" x2="396" y1="176" y2="184"/>
<line x1="404" x2="412" y1="176" y2="184"/>
</g>
<g>
<line x1="308" x2="300" y1="240" y2="248"/>
<line x1="308" x2="316" y1="240" y2="248"/>
<line x1="324" x2="316" y1="240" y2="248"/>
<line x1="324" x2="332" y1="240" y2="248"/>
<line x1="340" x2="332" y1="240" y2="248"/>
<line x1="340" x2="348" y1="240" y2="248"/>
<line x1="356" x2="348" y1="240" y2="248"/>
<line x1="356" x2="364" y1="240" y2="248"/>
<line x1="372" x2="364" y1="240" y2="248"/>
<line x1="372" x2="380" y1="240" y2="248"/>
<line x1="388" x2="380" y1="240" y2="248"/>
<line x1="388" x2="396" y1="240" y2="248"/>
<line x1="404" x2="396" y1="240" y2="248"/>
<line x1="404" x2="412" y1="240" y2="248"/>
</g>
<g>
<line x1="308" x2="300" y1="288" y2="296"/>
<line x1="308" x2="316" y1="288" y2="296"/>
<line x1="324" x2="316" y1="288" y2="296"/>
<line x1="324" x2="332" y1="288" y2="296"/>
<line x1="340" x2="332" y1="288" y2="296"/>
<line x1="340" x2="348" y1="288" y2="296"/>
<line x1="356" x2="348" y1="288" y2="296"/>
<line x1="356" x2="364" y1="288" y2="296"/>
<line x1="372" x2="364" y1="288" y2="296"/>
<line x1="372" x2="380" y1="288" y2="296"/>
<line x1="388" x2="380" y1="288" y2="296"/>
<line x1="388" x2="396" y1="288" y2="296"/>
<line x1="404" x2="396" y1="288" y2="296"/>
<line x1="404" x2="412" y1="288" y2="296"/>
</g>
<g>
<line x1="308" x2="300" y1="368" y2="376"/>
<line x1="308" x2="316" y1="368" y2="376"/>
<line x1="324" x2="316" y1="368" y2="376"/>
<line x1="324" x2="332" y1="368" y2="376"/>
<line x1="340" x2="332" y1="368" y2="376"/>
<line x1="340" x2="348" y1="368" y2="376"/>
<line x1="356" x2="348" y1="368" y2="376"/>
<line x1="356" x2="364" y1="368" y2="376"/>
<line x1="372" x2="364" y1="368" y2="376"/>
<line x1="372" x2="380" y1="368" y2="376"/>
<line x1="388" x2="380" y1="368" y2="376"/>
<line x1="388" x2="396" y1="368" y2="376"/>
<line x1="404" x2="396" y1="368" y2="376"/>
<line x1="404" x2="412" y1="368" y2="376"/>
</g>
<g>
<line x1="312" x2="408" y1="8" y2="8"/>
<path d="M 412 12 A 4 4 0 0 0 408 8" fill="none"/>
</g>
<g>
<line x1="312" x2="408" y1="56" y2="56"/>
<path d="M 408 56 A 4 4 0 0 0 412 52" fill="none"/>
</g>
<g>
<line x1="412" x2="412" y1="12" y2="52"/>
</g>
<g>
<line marker-end="url(#triangle)" x1="416" x2="420" y1="184" y2="184"/>
</g>
<g>
<line marker-end="url(#triangle)" x1="416" x2="420" y1="248" y2="248"/>
</g>
<g>
<line marker-end="url(#triangle)" x1="416" x2="420" y1="296" y2="296"/>
</g>
<g>
<line marker-end="url(#triangle)" x1="416" x2="420" y1="376" y2="376"/>
</g>
<g>
<line marker-start="url(#circle)" x1="428" x2="424" y1="184" y2="184"/>
<line marker-end="url(#open_circle)" marker-start="url(#circle)" x1="428" x2="460" y1="184" y2="184"/>
</g>
<g>
<line marker-start="url(#circle)" x1="428" x2="424" y1="248" y2="248"/>
<line marker-end="url(#open_circle)" marker-start="url(#circle)" x1="428" x2="460" y1="248" y2="248"/>
</g>
<g>
<line marker-start="url(#circle)" x1="428" x2="424" y1="296" y2="296"/>
<line marker-end="url(#open_circle)" marker-start="url(#circle)" x1="428" x2="460" y1="296" y2="296"/>
</g>
<g>
<line marker-start="url(#circle)" x1="428" x2="424" y1="376" y2="376"/>
<line marker-end="url(#open_circle)" marker-start="url(#circle)" x1="428" x2="460" y1="376" y2="376"/>
</g>
<g>
<line x1="484" x2="484" y1="12" y2="52"/>
<path d="M 484 52 A 4 4 0 0 0 488 56" fill="none"/>
<path d="M 488 8 A 4 4 0 0 0 484 12" fill="none"/>
</g>
<g>
<line x1="488" x2="592" y1="8" y2="8"/>
<path d="M 596 12 A 4 4 0 0 0 592 8" fill="none"/>
</g>
<g>
<line x1="488" x2="592" y1="56" y2="56"/>
<path d="M 592 56 A 4 4 0 0 0 596 52" fill="none"/>
</g>
<g>
<line x1="488" x2="608" y1="486" y2="486"/>
</g>
<g>
<line marker-end="url(#triangle)" x1="488" x2="484" y1="488" y2="488"/>
</g>
<g>
<line x1="488" x2="608" y1="490" y2="490"/>
</g>
<g>
<line x1="596" x2="596" y1="12" y2="52"/>
</g>
<g>
<line marker-end="url(#triangle)" x1="608" x2="612" y1="488" y2="488"/>
</g>
<g>
<line class="dashed" fill="none" x1="68" x2="68" y1="176" y2="416"/>
</g>
<g>
<line class="dashed" fill="none" x1="164" x2="164" y1="320" y2="336"/>
</g>
<g>
<line class="dashed" fill="none" x1="292" x2="292" y1="320" y2="336"/>
<line marker-end="url(#open_circle)" x1="292" x2="292" y1="336" y2="376"/>
</g>
<g>
<line class="dashed" fill="none" x1="348" x2="348" y1="320" y2="336"/>
</g>
<g>
<line class="dashed" fill="none" x1="516" x2="516" y1="320" y2="336"/>
</g>
<g>
<text x="17" y="108">
y &lt;- with_progress({
</text>
</g>
<g>
<text x="17" y="140">
})
</text>
</g>
<g>
<text x="25" y="28">
R
</text>
</g>
<g>
<text x="33" y="124">
slow_sum(1:10)
</text>
</g>
<g>
<text x="41" y="28">
code
</text>
</g>
<g>
<text x="81" y="188">
p &lt;- progressor(10)
</text>
</g>
<g>
<text x="81" y="204">
sum &lt;- 0
</text>
</g>
<g>
<text x="81" y="236">
sum &lt;- sum + x[1]
</text>
</g>
<g>
<text x="81" y="252">
p(message = &#39;Added 1&#39;)
</text>
</g>
<g>
<text x="81" y="284">
sum &lt;- sum + x[2]
</text>
</g>
<g>
<text x="81" y="300">
p(message = &#39;Added 2&#39;)
</text>
</g>
<g>
<text x="81" y="364">
sum &lt;- sum + x[10]
</text>
</g>
<g>
<text x="81" y="380">
p(message = &#39;Added 10&#39;)
</text>
</g>
<g>
<text x="81" y="412">
return(sum)
</text>
</g>
<g>
<text x="97" y="508">
controlled
</text>
</g>
<g>
<text x="97" y="524">
the
</text>
</g>
<g>
<text x="129" y="524">
DEVELOPER
</text>
</g>
<g>
<text x="185" y="508">
by
</text>
</g>
<g>
<text x="305" y="172">
progression
</text>
</g>
<g>
<text x="305" y="236">
progression
</text>
</g>
<g>
<text x="305" y="284">
progression
</text>
</g>
<g>
<text x="305" y="364">
progression
</text>
</g>
<g>
<text x="321" y="28">
signaled
</text>
</g>
<g>
<text x="321" y="44">
conditions
</text>
</g>
<g>
<text x="473" y="188">
[==&gt;------]
</text>
</g>
<g>
<text x="473" y="252">
[==&gt;------]
</text>
</g>
<g>
<text x="473" y="300">
[==&gt;------]
</text>
</g>
<g>
<text x="473" y="380">
[==&gt;------] 100% Added 10
</text>
</g>
<g>
<text x="497" y="28">
progression
</text>
</g>
<g>
<text x="497" y="44">
handler
</text>
</g>
<g>
<text x="497" y="508">
controlled
</text>
</g>
<g>
<text x="497" y="524">
the
</text>
</g>
<g>
<text x="529" y="524">
END
</text>
</g>
<g>
<text x="561" y="524">
USER
</text>
</g>
<g>
<text x="577" y="252">
10% Added 1
</text>
</g>
<g>
<text x="577" y="300">
10% Added 2
</text>
</g>
<g>
<text x="585" y="188">
0%
</text>
</g>
<g>
<text x="585" y="508">
by
</text>
</g>
</svg>