<svg xmlns="http://www.w3.org/2000/svg" xmlns:xlink="http://www.w3.org/1999/xlink" width="840" height="61.709999999999994"><rect width="840" height="61.709999999999994" rx="0" ry="0" class="a"></rect><svg height="21.709999999999997" viewBox="0 0 80 2.171" width="800" x="20" xmlns="http://www.w3.org/2000/svg" xmlns:xlink="http://www.w3.org/1999/xlink" y="20"><style>.a{fill:rgb(241,243,245)}.b{font-family:'Fira Code',Monaco,Consolas,Menlo,'Bitstream Vera Sans Mono','Powerline Symbols',monospace}.c{fill:rgb(133,153,0);white-space:pre}.d{fill:rgb(23,36,49);white-space:pre}.e{fill:transparent}.g{animation-duration:10.1801679999917s;animation-iteration-count:infinite;animation-name:f;animation-timing-function:steps(1,end)}@keyframes f{0%{transform:translateX(-0px)}2.1%{transform:translateX(-80px)}2.2%{transform:translateX(-160px)}5.4%{transform:translateX(-240px)}7%{transform:translateX(-320px)}8.6%{transform:translateX(-400px)}10.2%{transform:translateX(-480px)}13.3%{transform:translateX(-560px)}14.9%{transform:translateX(-640px)}16.5%{transform:translateX(-720px)}18.1%{transform:translateX(-800px)}21.2%{transform:translateX(-880px)}22.8%{transform:translateX(-960px)}24.3%{transform:translateX(-1040px)}25.9%{transform:translateX(-1120px)}29%{transform:translateX(-1200px)}30.6%{transform:translateX(-1280px)}32.2%{transform:translateX(-1360px)}33.8%{transform:translateX(-1440px)}36.9%{transform:translateX(-1520px)}38.6%{transform:translateX(-1600px)}40.3%{transform:translateX(-1680px)}40.3%{transform:translateX(-1760px)}40.3%{transform:translateX(-1840px)}100%{transform:translateX(-1920px)}}</style><g font-family="&#x27;Fira Code&#x27;,Monaco,Consolas,Menlo,&#x27;Bitstream Vera Sans Mono&#x27;,&#x27;Powerline Symbols&#x27;,monospace" font-size="1.67" class="b"><defs><symbol id="1"><text font-size="1.67" x="0" y="1.67" class="c">■■■■■■■■■■■■■■■■■■■■■■■■■■■■■■■</text><text font-size="1.67" x="33.065999999999995" y="1.67" class="d">100%</text><text font-size="1.67" x="38.07599999999999" y="1.67" class="d">|</text><text font-size="1.67" x="40.08" y="1.67" class="d">P:</text><text font-size="1.67" x="43.086" y="1.67" class="d">Adding</text><text font-size="1.67" x="50.1" y="1.67" class="d">25</text><text font-size="1.67" x="53.105999999999995" y="1.67" class="d">ETA:</text><text font-size="1.67" x="59.117999999999995" y="1.67" class="d">0s</text></symbol><symbol id="a"><rect height="1" width="80" x="0" y="0" class="e"></rect></symbol></defs><rect height="2.171" width="80" class="a"></rect><g class="g"><svg x="0" y="0" width="2000"><svg x="0"><use xlink:href="#a"></use></svg><svg x="80"><use xlink:href="#a"></use></svg><svg x="160"><use xlink:href="#a"></use><text font-size="1.67" x="0" y="1.67" class="c">■■</text><text font-size="1.67" x="35.06999999999999" y="1.67" class="d">4%</text><text font-size="1.67" x="38.07599999999999" y="1.67" class="d">|</text><text font-size="1.67" x="40.08" y="1.67" class="d">P:</text><text font-size="1.67" x="43.086" y="1.67" class="d">Adding</text><text font-size="1.67" x="50.1" y="1.67" class="d">1</text><text font-size="1.67" x="52.104" y="1.67" class="d">ETA:</text><text font-size="1.67" x="58.116" y="1.67" class="d">4s</text></svg><svg x="240"><use xlink:href="#a"></use><text font-size="1.67" x="0" y="1.67" class="c">■■■■■</text><text font-size="1.67" x="34.068" y="1.67" class="d">12%</text><text font-size="1.67" x="38.07599999999999" y="1.67" class="d">|</text><text font-size="1.67" x="40.08" y="1.67" class="d">P:</text><text font-size="1.67" x="43.086" y="1.67" class="d">Adding</text><text font-size="1.67" x="50.1" y="1.67" class="d">3</text><text font-size="1.67" x="52.104" y="1.67" class="d">ETA:</text><text font-size="1.67" x="58.116" y="1.67" class="d">4s</text></svg><svg x="320"><use xlink:href="#a"></use><text font-size="1.67" x="0" y="1.67" class="c">■■■■■■</text><text font-size="1.67" x="34.068" y="1.67" class="d">16%</text><text font-size="1.67" x="38.07599999999999" y="1.67" class="d">|</text><text font-size="1.67" x="40.08" y="1.67" class="d">P:</text><text font-size="1.67" x="43.086" y="1.67" class="d">Adding</text><text font-size="1.67" x="50.1" y="1.67" class="d">4</text><text font-size="1.67" x="52.104" y="1.67" class="d">ETA:</text><text font-size="1.67" x="58.116" y="1.67" class="d">3s</text></svg><svg x="400"><use xlink:href="#a"></use><text font-size="1.67" x="0" y="1.67" class="c">■■■■■■■</text><text font-size="1.67" x="34.068" y="1.67" class="d">20%</text><text font-size="1.67" x="38.07599999999999" y="1.67" class="d">|</text><text font-size="1.67" x="40.08" y="1.67" class="d">P:</text><text font-size="1.67" x="43.086" y="1.67" class="d">Adding</text><text font-size="1.67" x="50.1" y="1.67" class="d">5</text><text font-size="1.67" x="52.104" y="1.67" class="d">ETA:</text><text font-size="1.67" x="58.116" y="1.67" class="d">3s</text></svg><svg x="480"><use xlink:href="#a"></use><text font-size="1.67" x="0" y="1.67" class="c">■■■■■■■■</text><text font-size="1.67" x="34.068" y="1.67" class="d">24%</text><text font-size="1.67" x="38.07599999999999" y="1.67" class="d">|</text><text font-size="1.67" x="40.08" y="1.67" class="d">P:</text><text font-size="1.67" x="43.086" y="1.67" class="d">Adding</text><text font-size="1.67" x="50.1" y="1.67" class="d">6</text><text font-size="1.67" x="52.104" y="1.67" class="d">ETA:</text><text font-size="1.67" x="58.116" y="1.67" class="d">3s</text></svg><svg x="560"><use xlink:href="#a"></use><text font-size="1.67" x="0" y="1.67" class="c">■■■■■■■■■■■</text><text font-size="1.67" x="34.068" y="1.67" class="d">32%</text><text font-size="1.67" x="38.07599999999999" y="1.67" class="d">|</text><text font-size="1.67" x="40.08" y="1.67" class="d">P:</text><text font-size="1.67" x="43.086" y="1.67" class="d">Adding</text><text font-size="1.67" x="50.1" y="1.67" class="d">8</text><text font-size="1.67" x="52.104" y="1.67" class="d">ETA:</text><text font-size="1.67" x="58.116" y="1.67" class="d">3s</text></svg><svg x="640"><use xlink:href="#a"></use><text font-size="1.67" x="0" y="1.67" class="c">■■■■■■■■■■■■</text><text font-size="1.67" x="34.068" y="1.67" class="d">36%</text><text font-size="1.67" x="38.07599999999999" y="1.67" class="d">|</text><text font-size="1.67" x="40.08" y="1.67" class="d">P:</text><text font-size="1.67" x="43.086" y="1.67" class="d">Adding</text><text font-size="1.67" x="50.1" y="1.67" class="d">9</text><text font-size="1.67" x="52.104" y="1.67" class="d">ETA:</text><text font-size="1.67" x="58.116" y="1.67" class="d">3s</text></svg><svg x="720"><use xlink:href="#a"></use><text font-size="1.67" x="0" y="1.67" class="c">■■■■■■■■■■■■■</text><text font-size="1.67" x="34.068" y="1.67" class="d">40%</text><text font-size="1.67" x="38.07599999999999" y="1.67" class="d">|</text><text font-size="1.67" x="40.08" y="1.67" class="d">P:</text><text font-size="1.67" x="43.086" y="1.67" class="d">Adding</text><text font-size="1.67" x="50.1" y="1.67" class="d">10</text><text font-size="1.67" x="53.105999999999995" y="1.67" class="d">ETA:</text><text font-size="1.67" x="59.117999999999995" y="1.67" class="d">2s</text></svg><svg x="800"><use xlink:href="#a"></use><text font-size="1.67" x="0" y="1.67" class="c">■■■■■■■■■■■■■■</text><text font-size="1.67" x="34.068" y="1.67" class="d">44%</text><text font-size="1.67" x="38.07599999999999" y="1.67" class="d">|</text><text font-size="1.67" x="40.08" y="1.67" class="d">P:</text><text font-size="1.67" x="43.086" y="1.67" class="d">Adding</text><text font-size="1.67" x="50.1" y="1.67" class="d">11</text><text font-size="1.67" x="53.105999999999995" y="1.67" class="d">ETA:</text><text font-size="1.67" x="59.117999999999995" y="1.67" class="d">2s</text></svg><svg x="880"><use xlink:href="#a"></use><text font-size="1.67" x="0" y="1.67" class="c">■■■■■■■■■■■■■■■■■</text><text font-size="1.67" x="34.068" y="1.67" class="d">52%</text><text font-size="1.67" x="38.07599999999999" y="1.67" class="d">|</text><text font-size="1.67" x="40.08" y="1.67" class="d">P:</text><text font-size="1.67" x="43.086" y="1.67" class="d">Adding</text><text font-size="1.67" x="50.1" y="1.67" class="d">13</text><text font-size="1.67" x="53.105999999999995" y="1.67" class="d">ETA:</text><text font-size="1.67" x="59.117999999999995" y="1.67" class="d">2s</text></svg><svg x="960"><use xlink:href="#a"></use><text font-size="1.67" x="0" y="1.67" class="c">■■■■■■■■■■■■■■■■■■</text><text font-size="1.67" x="34.068" y="1.67" class="d">56%</text><text font-size="1.67" x="38.07599999999999" y="1.67" class="d">|</text><text font-size="1.67" x="40.08" y="1.67" class="d">P:</text><text font-size="1.67" x="43.086" y="1.67" class="d">Adding</text><text font-size="1.67" x="50.1" y="1.67" class="d">14</text><text font-size="1.67" x="53.105999999999995" y="1.67" class="d">ETA:</text><text font-size="1.67" x="59.117999999999995" y="1.67" class="d">2s</text></svg><svg x="1040"><use xlink:href="#a"></use><text font-size="1.67" x="0" y="1.67" class="c">■■■■■■■■■■■■■■■■■■■</text><text font-size="1.67" x="34.068" y="1.67" class="d">60%</text><text font-size="1.67" x="38.07599999999999" y="1.67" class="d">|</text><text font-size="1.67" x="40.08" y="1.67" class="d">P:</text><text font-size="1.67" x="43.086" y="1.67" class="d">Adding</text><text font-size="1.67" x="50.1" y="1.67" class="d">15</text><text font-size="1.67" x="53.105999999999995" y="1.67" class="d">ETA:</text><text font-size="1.67" x="59.117999999999995" y="1.67" class="d">2s</text></svg><svg x="1120"><use xlink:href="#a"></use><text font-size="1.67" x="0" y="1.67" class="c">■■■■■■■■■■■■■■■■■■■■</text><text font-size="1.67" x="34.068" y="1.67" class="d">64%</text><text font-size="1.67" x="38.07599999999999" y="1.67" class="d">|</text><text font-size="1.67" x="40.08" y="1.67" class="d">P:</text><text font-size="1.67" x="43.086" y="1.67" class="d">Adding</text><text font-size="1.67" x="50.1" y="1.67" class="d">16</text><text font-size="1.67" x="53.105999999999995" y="1.67" class="d">ETA:</text><text font-size="1.67" x="59.117999999999995" y="1.67" class="d">1s</text></svg><svg x="1200"><use xlink:href="#a"></use><text font-size="1.67" x="0" y="1.67" class="c">■■■■■■■■■■■■■■■■■■■■■■■</text><text font-size="1.67" x="34.068" y="1.67" class="d">72%</text><text font-size="1.67" x="38.07599999999999" y="1.67" class="d">|</text><text font-size="1.67" x="40.08" y="1.67" class="d">P:</text><text font-size="1.67" x="43.086" y="1.67" class="d">Adding</text><text font-size="1.67" x="50.1" y="1.67" class="d">18</text><text font-size="1.67" x="53.105999999999995" y="1.67" class="d">ETA:</text><text font-size="1.67" x="59.117999999999995" y="1.67" class="d">1s</text></svg><svg x="1280"><use xlink:href="#a"></use><text font-size="1.67" x="0" y="1.67" class="c">■■■■■■■■■■■■■■■■■■■■■■■■</text><text font-size="1.67" x="34.068" y="1.67" class="d">76%</text><text font-size="1.67" x="38.07599999999999" y="1.67" class="d">|</text><text font-size="1.67" x="40.08" y="1.67" class="d">P:</text><text font-size="1.67" x="43.086" y="1.67" class="d">Adding</text><text font-size="1.67" x="50.1" y="1.67" class="d">19</text><text font-size="1.67" x="53.105999999999995" y="1.67" class="d">ETA:</text><text font-size="1.67" x="59.117999999999995" y="1.67" class="d">1s</text></svg><svg x="1360"><use xlink:href="#a"></use><text font-size="1.67" x="0" y="1.67" class="c">■■■■■■■■■■■■■■■■■■■■■■■■■</text><text font-size="1.67" x="34.068" y="1.67" class="d">80%</text><text font-size="1.67" x="38.07599999999999" y="1.67" class="d">|</text><text font-size="1.67" x="40.08" y="1.67" class="d">P:</text><text font-size="1.67" x="43.086" y="1.67" class="d">Adding</text><text font-size="1.67" x="50.1" y="1.67" class="d">20</text><text font-size="1.67" x="53.105999999999995" y="1.67" class="d">ETA:</text><text font-size="1.67" x="59.117999999999995" y="1.67" class="d">1s</text></svg><svg x="1440"><use xlink:href="#a"></use><text font-size="1.67" x="0" y="1.67" class="c">■■■■■■■■■■■■■■■■■■■■■■■■■■</text><text font-size="1.67" x="34.068" y="1.67" class="d">84%</text><text font-size="1.67" x="38.07599999999999" y="1.67" class="d">|</text><text font-size="1.67" x="40.08" y="1.67" class="d">P:</text><text font-size="1.67" x="43.086" y="1.67" class="d">Adding</text><text font-size="1.67" x="50.1" y="1.67" class="d">21</text><text font-size="1.67" x="53.105999999999995" y="1.67" class="d">ETA:</text><text font-size="1.67" x="59.117999999999995" y="1.67" class="d">1s</text></svg><svg x="1520"><use xlink:href="#a"></use><text font-size="1.67" x="0" y="1.67" class="c">■■■■■■■■■■■■■■■■■■■■■■■■■■■■■</text><text font-size="1.67" x="34.068" y="1.67" class="d">92%</text><text font-size="1.67" x="38.07599999999999" y="1.67" class="d">|</text><text font-size="1.67" x="40.08" y="1.67" class="d">P:</text><text font-size="1.67" x="43.086" y="1.67" class="d">Adding</text><text font-size="1.67" x="50.1" y="1.67" class="d">23</text><text font-size="1.67" x="53.105999999999995" y="1.67" class="d">ETA:</text><text font-size="1.67" x="59.117999999999995" y="1.67" class="d">0s</text></svg><svg x="1600"><use xlink:href="#a"></use><text font-size="1.67" x="0" y="1.67" class="c">■■■■■■■■■■■■■■■■■■■■■■■■■■■■■■</text><text font-size="1.67" x="34.068" y="1.67" class="d">96%</text><text font-size="1.67" x="38.07599999999999" y="1.67" class="d">|</text><text font-size="1.67" x="40.08" y="1.67" class="d">P:</text><text font-size="1.67" x="43.086" y="1.67" class="d">Adding</text><text font-size="1.67" x="50.1" y="1.67" class="d">24</text><text font-size="1.67" x="53.105999999999995" y="1.67" class="d">ETA:</text><text font-size="1.67" x="59.117999999999995" y="1.67" class="d">0s</text></svg><svg x="1680"><use xlink:href="#a"></use><use xlink:href="#1" y="0"></use></svg><svg x="1760"><use xlink:href="#a"></use><use xlink:href="#1" y="0"></use></svg><svg x="1840"><use xlink:href="#a"></use><use xlink:href="#1" y="0"></use></svg><svg x="1920"><use xlink:href="#a"></use><use xlink:href="#1" y="0"></use></svg></svg></g></g></svg></svg>