<svg xmlns="http://www.w3.org/2000/svg" xmlns:xlink="http://www.w3.org/1999/xlink" width="840" height="61.709999999999994"><rect width="840" height="61.709999999999994" rx="0" ry="0" class="a"></rect><svg height="21.709999999999997" viewBox="0 0 80 2.171" width="800" x="20" xmlns="http://www.w3.org/2000/svg" xmlns:xlink="http://www.w3.org/1999/xlink" y="20"><style>.a{fill:rgb(241,243,245)}.b{font-family:'Fira Code',Monaco,Consolas,Menlo,'Bitstream Vera Sans Mono','Powerline Symbols',monospace}.c{fill:transparent}.e{animation-duration:9.22139599994989s;animation-iteration-count:infinite;animation-name:d;animation-timing-function:steps(1,end)}.f{fill:rgb(23,36,49);white-space:pre}.g{fill:rgb(133,153,0);white-space:pre}@keyframes d{0%{transform:translateX(-0px)}0.8%{transform:translateX(-80px)}1.1%{transform:translateX(-160px)}2.5%{transform:translateX(-240px)}3.9%{transform:translateX(-320px)}6.6%{transform:translateX(-400px)}8.1%{transform:translateX(-480px)}10.7%{transform:translateX(-560px)}13.4%{transform:translateX(-640px)}14.8%{transform:translateX(-720px)}17.5%{transform:translateX(-800px)}19.2%{transform:translateX(-880px)}21.8%{transform:translateX(-960px)}23.3%{transform:translateX(-1040px)}26%{transform:translateX(-1120px)}27.5%{transform:translateX(-1200px)}30.2%{transform:translateX(-1280px)}31.8%{transform:translateX(-1360px)}34.4%{transform:translateX(-1440px)}34.4%{transform:translateX(-1520px)}34.4%{transform:translateX(-1600px)}34.5%{transform:translateX(-1680px)}100%{transform:translateX(-1760px)}}</style><g font-family="&#x27;Fira Code&#x27;,Monaco,Consolas,Menlo,&#x27;Bitstream Vera Sans Mono&#x27;,&#x27;Powerline Symbols&#x27;,monospace" font-size="1.67" class="b"><defs><symbol id="a"><rect height="1" width="80" x="0" y="0" class="c"></rect></symbol></defs><rect height="2.171" width="80" class="a"></rect><g class="e"><svg x="0" y="0" width="1840"><svg x="0"><use xlink:href="#a"></use></svg><svg x="80"><use xlink:href="#a"></use></svg><svg x="160"><use xlink:href="#a"></use><text font-size="1.67" x="0" y="1.67" class="f">⠙</text><text font-size="1.67" x="2.004" y="1.67" class="g">■■</text><text font-size="1.67" x="37.074" y="1.67" class="f">4%</text><text font-size="1.67" x="40.08" y="1.67" class="f">P:</text><text font-size="1.67" x="43.086" y="1.67" class="f">Adding</text><text font-size="1.67" x="50.1" y="1.67" class="f">1</text></svg><svg x="240"><use xlink:href="#a"></use><text font-size="1.67" x="0" y="1.67" class="f">⠹</text><text font-size="1.67" x="2.004" y="1.67" class="g">■■■</text><text font-size="1.67" x="37.074" y="1.67" class="f">8%</text><text font-size="1.67" x="40.08" y="1.67" class="f">P:</text><text font-size="1.67" x="43.086" y="1.67" class="f">Adding</text><text font-size="1.67" x="50.1" y="1.67" class="f">2</text></svg><svg x="320"><use xlink:href="#a"></use><text font-size="1.67" x="0" y="1.67" class="f">⠸</text><text font-size="1.67" x="2.004" y="1.67" class="g">■■■■■</text><text font-size="1.67" x="36.071999999999996" y="1.67" class="f">12%</text><text font-size="1.67" x="40.08" y="1.67" class="f">P:</text><text font-size="1.67" x="43.086" y="1.67" class="f">Adding</text><text font-size="1.67" x="50.1" y="1.67" class="f">3</text></svg><svg x="400"><use xlink:href="#a"></use><text font-size="1.67" x="0" y="1.67" class="f">⠼</text><text font-size="1.67" x="2.004" y="1.67" class="g">■■■■■■■</text><text font-size="1.67" x="36.071999999999996" y="1.67" class="f">20%</text><text font-size="1.67" x="40.08" y="1.67" class="f">P:</text><text font-size="1.67" x="43.086" y="1.67" class="f">Adding</text><text font-size="1.67" x="50.1" y="1.67" class="f">5</text></svg><svg x="480"><use xlink:href="#a"></use><text font-size="1.67" x="0" y="1.67" class="f">⠴</text><text font-size="1.67" x="2.004" y="1.67" class="g">■■■■■■■■</text><text font-size="1.67" x="36.071999999999996" y="1.67" class="f">24%</text><text font-size="1.67" x="40.08" y="1.67" class="f">P:</text><text font-size="1.67" x="43.086" y="1.67" class="f">Adding</text><text font-size="1.67" x="50.1" y="1.67" class="f">6</text></svg><svg x="560"><use xlink:href="#a"></use><text font-size="1.67" x="0" y="1.67" class="f">⠦</text><text font-size="1.67" x="2.004" y="1.67" class="g">■■■■■■■■■■■</text><text font-size="1.67" x="36.071999999999996" y="1.67" class="f">32%</text><text font-size="1.67" x="40.08" y="1.67" class="f">P:</text><text font-size="1.67" x="43.086" y="1.67" class="f">Adding</text><text font-size="1.67" x="50.1" y="1.67" class="f">8</text></svg><svg x="640"><use xlink:href="#a"></use><text font-size="1.67" x="0" y="1.67" class="f">⠧</text><text font-size="1.67" x="2.004" y="1.67" class="g">■■■■■■■■■■■■■</text><text font-size="1.67" x="36.071999999999996" y="1.67" class="f">40%</text><text font-size="1.67" x="40.08" y="1.67" class="f">P:</text><text font-size="1.67" x="43.086" y="1.67" class="f">Adding</text><text font-size="1.67" x="50.1" y="1.67" class="f">10</text></svg><svg x="720"><use xlink:href="#a"></use><text font-size="1.67" x="0" y="1.67" class="f">⠇</text><text font-size="1.67" x="2.004" y="1.67" class="g">■■■■■■■■■■■■■■</text><text font-size="1.67" x="36.071999999999996" y="1.67" class="f">44%</text><text font-size="1.67" x="40.08" y="1.67" class="f">P:</text><text font-size="1.67" x="43.086" y="1.67" class="f">Adding</text><text font-size="1.67" x="50.1" y="1.67" class="f">11</text></svg><svg x="800"><use xlink:href="#a"></use><text font-size="1.67" x="0" y="1.67" class="f">⠏</text><text font-size="1.67" x="2.004" y="1.67" class="g">■■■■■■■■■■■■■■■■■</text><text font-size="1.67" x="36.071999999999996" y="1.67" class="f">52%</text><text font-size="1.67" x="40.08" y="1.67" class="f">P:</text><text font-size="1.67" x="43.086" y="1.67" class="f">Adding</text><text font-size="1.67" x="50.1" y="1.67" class="f">13</text></svg><svg x="880"><use xlink:href="#a"></use><text font-size="1.67" x="0" y="1.67" class="f">⠋</text><text font-size="1.67" x="2.004" y="1.67" class="g">■■■■■■■■■■■■■■■■■■</text><text font-size="1.67" x="36.071999999999996" y="1.67" class="f">56%</text><text font-size="1.67" x="40.08" y="1.67" class="f">P:</text><text font-size="1.67" x="43.086" y="1.67" class="f">Adding</text><text font-size="1.67" x="50.1" y="1.67" class="f">14</text></svg><svg x="960"><use xlink:href="#a"></use><text font-size="1.67" x="0" y="1.67" class="f">⠙</text><text font-size="1.67" x="2.004" y="1.67" class="g">■■■■■■■■■■■■■■■■■■■■</text><text font-size="1.67" x="36.071999999999996" y="1.67" class="f">64%</text><text font-size="1.67" x="40.08" y="1.67" class="f">P:</text><text font-size="1.67" x="43.086" y="1.67" class="f">Adding</text><text font-size="1.67" x="50.1" y="1.67" class="f">16</text></svg><svg x="1040"><use xlink:href="#a"></use><text font-size="1.67" x="0" y="1.67" class="f">⠹</text><text font-size="1.67" x="2.004" y="1.67" class="g">■■■■■■■■■■■■■■■■■■■■■</text><text font-size="1.67" x="36.071999999999996" y="1.67" class="f">68%</text><text font-size="1.67" x="40.08" y="1.67" class="f">P:</text><text font-size="1.67" x="43.086" y="1.67" class="f">Adding</text><text font-size="1.67" x="50.1" y="1.67" class="f">17</text></svg><svg x="1120"><use xlink:href="#a"></use><text font-size="1.67" x="0" y="1.67" class="f">⠸</text><text font-size="1.67" x="2.004" y="1.67" class="g">■■■■■■■■■■■■■■■■■■■■■■■■</text><text font-size="1.67" x="36.071999999999996" y="1.67" class="f">76%</text><text font-size="1.67" x="40.08" y="1.67" class="f">P:</text><text font-size="1.67" x="43.086" y="1.67" class="f">Adding</text><text font-size="1.67" x="50.1" y="1.67" class="f">19</text></svg><svg x="1200"><use xlink:href="#a"></use><text font-size="1.67" x="0" y="1.67" class="f">⠼</text><text font-size="1.67" x="2.004" y="1.67" class="g">■■■■■■■■■■■■■■■■■■■■■■■■■</text><text font-size="1.67" x="36.071999999999996" y="1.67" class="f">80%</text><text font-size="1.67" x="40.08" y="1.67" class="f">P:</text><text font-size="1.67" x="43.086" y="1.67" class="f">Adding</text><text font-size="1.67" x="50.1" y="1.67" class="f">20</text></svg><svg x="1280"><use xlink:href="#a"></use><text font-size="1.67" x="0" y="1.67" class="f">⠴</text><text font-size="1.67" x="2.004" y="1.67" class="g">■■■■■■■■■■■■■■■■■■■■■■■■■■■</text><text font-size="1.67" x="36.071999999999996" y="1.67" class="f">88%</text><text font-size="1.67" x="40.08" y="1.67" class="f">P:</text><text font-size="1.67" x="43.086" y="1.67" class="f">Adding</text><text font-size="1.67" x="50.1" y="1.67" class="f">22</text></svg><svg x="1360"><use xlink:href="#a"></use><text font-size="1.67" x="0" y="1.67" class="f">⠦</text><text font-size="1.67" x="2.004" y="1.67" class="g">■■■■■■■■■■■■■■■■■■■■■■■■■■■■■</text><text font-size="1.67" x="36.071999999999996" y="1.67" class="f">92%</text><text font-size="1.67" x="40.08" y="1.67" class="f">P:</text><text font-size="1.67" x="43.086" y="1.67" class="f">Adding</text><text font-size="1.67" x="50.1" y="1.67" class="f">23</text></svg><svg x="1440"><use xlink:href="#a"></use><text font-size="1.67" x="0" y="1.67" class="f">⠧</text><text font-size="1.67" x="2.004" y="1.67" class="g">■■■■■■■■■■■■■■■■■■■■■■■■■■■■■■■</text><text font-size="1.67" x="35.06999999999999" y="1.67" class="f">100%</text><text font-size="1.67" x="40.08" y="1.67" class="f">P:</text><text font-size="1.67" x="43.086" y="1.67" class="f">Adding</text><text font-size="1.67" x="50.1" y="1.67" class="f">25</text></svg><svg x="1520"><use xlink:href="#a"></use></svg><svg x="1600"><use xlink:href="#a"></use></svg><svg x="1680"><use xlink:href="#a"></use></svg><svg x="1760"><use xlink:href="#a"></use></svg></svg></g></g></svg></svg>